<?xml version="1.0" encoding="UTF-8"?>
<svg xmlns="http://www.w3.org/2000/svg" version="1.1" viewBox="0 0 512 512">
  <defs>
    <style>
      .cls-1 {
        fill: #70a9ca;
      }
    </style>
  </defs>
  <!-- Generator: Adobe Illustrator 28.7.8, SVG Export Plug-In . SVG Version: 1.2.0 Build 200)  -->
  <g>
    <g id="_圖層_1" data-name="圖層_1">
      <g id="Layer_1">
        <path class="cls-1" d="M394.7,0H117.3C52.7,0,0,52.7,0,117.3v277.3c0,64.6,52.7,117.3,117.3,117.3h277.3c64.6,0,117.3-52.7,117.3-117.3V117.3C511.9,52.7,459.2,0,394.6,0h.1ZM448,117.3v106.7h-160V64h106.7c29.4,0,53.3,23.9,53.3,53.3ZM117.3,64h106.7v160H64v-106.7c0-29.4,23.9-53.3,53.3-53.3ZM64,394.7v-106.7h160v160h-106.7c-29.4,0-53.3-23.9-53.3-53.3ZM394.7,448h-106.7v-160h160v106.7c0,29.4-23.9,53.3-53.3,53.3Z"/>
      </g>
    </g>
  </g>
</svg>