<svg width="116" height="106" viewBox="0 0 116 106" fill="none" xmlns="http://www.w3.org/2000/svg">
<path d="M57.8651 60.3681C42.2331 60.3681 26.5924 60.3406 10.9603 60.3865C7.41345 60.3957 4.35105 59.248 2.02397 56.4383C-0.484769 53.3992 -0.614532 49.6897 1.37516 46.2649C3.45136 42.6841 8.88409 40.2601 12.6559 41.4445C14.4985 42.023 16.22 43.0329 18.0021 43.8318C22.6908 45.9436 27.5699 46.2833 32.077 43.8318C38.5565 40.3243 44.7505 40.2417 51.2299 43.6114C56.282 46.2374 61.3947 45.9803 66.4468 43.2809C71.9833 40.3243 77.6583 40.1315 83.2207 43.1248C89.3109 46.3935 95.1762 45.8518 101.154 42.7391C106.552 39.9203 111.959 41.7383 114.692 46.9719C117.911 53.1329 113.291 60.1478 105.739 60.3222C99.0604 60.4691 92.3733 60.359 85.6862 60.359C76.4125 60.359 67.1388 60.359 57.8651 60.359V60.3681Z" fill="#F7E7A1"/>
<path d="M77.1435 105.299C71.3408 105.299 65.8591 105.261 60.3687 105.328C58.9203 105.347 58.5993 104.469 58.2958 103.209C55.5896 91.7206 52.8574 80.2413 50.0819 68.7716C49.6742 67.0731 49.9865 66.4338 51.6778 66.4719C56.535 66.5578 61.3922 66.5292 66.2494 66.491C67.3597 66.491 68.0015 66.7964 68.3137 68.1132C71.1934 80.394 74.1337 92.6558 77.1521 105.309L77.1435 105.299Z" fill="#EEFFFB"/>
<path d="M21.1853 66.541C26.2433 66.541 29.4017 69.2071 30.6604 74.5395C32.8417 83.8426 34.9454 93.1648 37.1956 102.439C37.7215 104.591 37.5491 105.486 35.2902 105.305C32.6175 105.096 29.9104 105.353 27.2463 105.096C22.8148 104.677 20.1248 102.096 19.1765 97.3354C17.3056 87.9752 15.5813 78.5769 13.7535 69.2071C13.3828 67.3027 13.6759 66.3029 15.7192 66.4933C17.5297 66.6647 19.3661 66.5314 21.1939 66.5314L21.1853 66.541Z" fill="#EEFFFB"/>
<path d="M96.5027 96.8188C93.8751 86.8569 91.2383 76.8859 88.4985 66.499C93.0616 66.499 97.3255 66.5637 101.589 66.4712C103.478 66.4343 103.357 67.534 103.114 68.6983C101.187 78.078 99.2424 87.4484 97.2975 96.828H96.512L96.5027 96.8188Z" fill="#EEFFFB"/>
<path d="M56.5693 103.001C55.0458 96.8233 53.5733 90.6173 52.0838 84.4303C51.2156 80.6112 50.3474 76.7922 49.4707 72.9826C49.1728 71.5409 48.7898 70.1088 48.594 68.648C48.3302 66.7098 47.3684 66.1751 45.7938 66.6143C44.517 66.6143 43.2488 66.6143 41.9721 66.6143C41.1209 66.6143 40.2698 66.6143 39.4272 66.6143C38.3717 66.6143 37.3078 66.6143 36.2524 66.6143C35.2991 66.5761 34.3543 66.5666 33.401 66.5093C31.8945 66.4233 31.5455 67.3113 31.8945 68.7434C33.0691 73.5268 34.2607 78.3007 35.4438 83.0841C36.2268 87.9439 37.2822 92.7273 38.7633 97.377C38.7122 99.6876 39.7251 101.731 40.0655 103.946C40.2613 105.225 41.0443 105.321 41.9721 105.139C43.2488 105.139 44.517 105.139 45.7938 105.139C46.6449 105.139 47.4961 105.139 48.3387 105.139C49.1898 105.139 50.041 105.139 50.8836 105.139C52.2625 105.187 53.6414 105.149 55.0117 105.302C56.7396 105.493 56.9609 104.643 56.5608 103.01L56.5693 103.001Z" fill="#FED85E"/>
<path d="M94.8824 97.5047C93.4213 91.8108 91.9164 86.1354 90.429 80.4507C90.3852 77.275 88.6353 74.5531 88.3204 71.4422C87.4804 69.4702 88.6616 65.7205 84.5494 66.6186C83.4557 66.6186 82.3708 66.6186 81.2771 66.6186C80.1834 66.6186 79.0985 66.6186 78.0048 66.6186C76.9111 66.6186 72.7814 66.5445 71.8015 66.4797C70.4891 66.3964 70.0954 66.8593 70.4978 68.3036C71.749 72.8032 72.8777 77.3491 74.0501 81.8765C74.7588 86.3853 75.8787 90.7738 77.2961 95.0883C77.8298 97.5973 78.3635 100.097 78.8973 102.606C79.2035 104.023 80.0609 104.347 81.2771 103.967C82.3708 103.967 83.4557 103.967 84.5494 103.967H87.1654C88.5828 104.097 90.009 104.282 91.3039 103.393C95.3199 102.217 95.8711 101.366 94.8824 97.4955V97.5047Z" fill="#FED85E"/>
<path d="M104.136 35.583C103.125 31.1409 101.724 26.9688 99.3035 23.2158C98.949 21.3999 97.6608 20.301 96.5888 19.0344C95.828 17.144 94.4188 15.9147 92.854 14.8624C92.1192 12.9254 90.3036 12.4318 88.8858 11.3981C87.9175 9.60075 85.8859 9.5635 84.5545 8.38079C83.8369 7.99897 83.1193 7.61715 82.4018 7.23533C81.3125 5.6615 79.4018 6.03401 78.0359 5.09343C76.7477 4.60917 75.4509 4.12491 74.1627 3.64065C73.2117 2.84908 72.0619 2.97015 70.9726 2.83046C69.9957 2.06682 68.8372 2.26238 67.7392 2.13201C66.5029 1.32181 65.137 1.55462 63.8056 1.56394C63.6672 1.42425 63.5203 1.41493 63.356 1.52668C62.5952 1.54531 62.5952 1.54531 63.356 1.52668C61.1774 0.539544 58.9036 1.00518 56.6558 1.0238C54.2784 0.958612 51.8836 0.716485 49.5666 1.56394C48.6935 1.61981 47.8289 1.68499 46.9557 1.74087C45.6676 1.97369 44.3881 2.21582 43.0999 2.44863C41.7512 2.67214 40.3853 2.81183 39.1749 3.57546C38.0337 3.59409 36.9617 3.87347 35.9848 4.51604C34.7744 4.60917 33.7456 5.2238 32.7341 5.87569C31.2385 6.09919 30.054 7.02114 28.8696 7.91516C27.4259 8.54842 26.008 9.23755 24.936 10.5134C23.3885 11.1746 22.2473 12.4038 21.1147 13.6517C19.5931 14.5551 18.7891 16.1475 17.8727 17.6376C15.3483 20.4034 13.697 23.7001 12.6941 27.3972C11.4838 29.4832 11.0429 31.83 10.6279 34.1954C9.83253 38.6562 9.81524 38.6562 13.9131 39.4943C15.599 40.5001 17.2675 41.5711 19.1782 42.0367C19.8871 42.8655 20.8381 42.7724 21.7545 42.7724C23.5268 43.6198 25.3077 43.5919 27.08 42.7817C27.9878 42.7817 28.9129 42.9028 29.6304 42.1019C30.763 41.8225 31.8523 41.45 32.7687 40.6305L36.0021 39.2336C37.1519 39.4478 38.1721 38.8704 39.2354 38.5817C40.5322 38.5817 41.8204 38.5817 43.1172 38.5817C43.9904 38.7586 44.8636 38.9449 45.7367 39.1218C47.0249 39.6247 48.3044 40.1276 49.5926 40.6305C51.0277 41.4779 52.3937 42.5023 54.1055 42.6234C56.2755 43.3684 58.4541 43.7409 60.6587 42.7538C62.1024 42.819 63.3474 42.2509 64.4713 41.3289C66.0015 40.6398 67.5231 39.9507 69.0533 39.2615C69.6844 39.1405 70.3155 39.0194 70.938 38.889C72.0187 38.7679 73.0993 38.6376 74.18 38.5165C75.6843 38.7121 77.1886 38.9076 78.6843 39.1032C79.9811 39.5875 81.2779 40.081 82.5833 40.5653C83.2231 40.854 83.8542 41.1427 84.4939 41.4314C85.6178 42.4744 86.9319 42.8655 88.393 42.791C90.1653 43.5267 91.9376 43.5174 93.7099 42.7724C94.6177 42.791 95.5254 42.8376 96.2344 42.0553C97.2632 41.9063 98.1623 41.45 98.949 40.7236C99.8568 40.379 100.747 39.8668 101.681 39.7365C104.119 39.3826 104.793 38.3116 104.162 35.5644L104.136 35.583Z" fill="#B9E5DD"/>
</svg>
