<?xml version="1.0" encoding="UTF-8"?>
<svg xmlns="http://www.w3.org/2000/svg" version="1.1" viewBox="0 0 499.4 512">
  <defs>
    <style>
      .cls-1 {
        fill: #3f88b4;
      }
    </style>
  </defs>
  <!-- Generator: Adobe Illustrator 28.7.8, SVG Export Plug-In . SVG Version: 1.2.0 Build 200)  -->
  <g>
    <g id="_圖層_1" data-name="圖層_1">
      <g id="Filled">
        <g>
          <path class="cls-1" d="M484.5,87c-12.1-14.6-30.2-23-49.1-23H90.5l-.9-7.5C85.8,24.3,58.5,0,26.1,0h-4.7C9.6,0,0,9.6,0,21.3s9.6,21.3,21.3,21.3h4.7c10.8,0,19.9,8.1,21.2,18.8l29.4,249.6c6.3,53.7,51.8,94.2,105.9,94.2h222.8c11.8,0,21.3-9.6,21.3-21.3s-9.6-21.3-21.3-21.3h-222.8c-27.1,0-51.1-17.2-60.2-42.7h254.3c51.6,0,95.8-36.9,105-87.7l16.7-92.9c3.4-18.7-1.7-37.9-13.9-52.4h.1Z"/>
          <circle class="cls-1" cx="149.3" cy="469.3" r="42.7"/>
          <circle class="cls-1" cx="362.7" cy="469.3" r="42.7"/>
        </g>
      </g>
    </g>
  </g>
</svg>