<?xml version="1.0" encoding="UTF-8"?>
<svg xmlns="http://www.w3.org/2000/svg" version="1.1" viewBox="0 0 512 512">
  <defs>
    <style>
      .cls-1 {
        fill: #d8473a;
      }
    </style>
  </defs>
  <!-- Generator: Adobe Illustrator 28.7.8, SVG Export Plug-In . SVG Version: 1.2.0 Build 200)  -->
  <g>
    <g id="Capa_1">
      <path class="cls-1" d="M256,0C114.6,0,0,114.6,0,256s114.6,256,256,256,256-114.6,256-256C511.8,114.7,397.3.2,256,0ZM341.3,311.2c8.7,8,9.2,21.5,1.2,30.1s-21.5,9.2-30.1,1.2c-.4-.4-.9-.8-1.2-1.2l-55.2-55.2-55.2,55.2c-8.5,8.2-22,8-30.2-.5-8-8.3-8-21.4,0-29.6l55.2-55.2-55.2-55.2c-8.2-8.5-7.9-22,.5-30.2,8.3-8,21.4-8,29.6,0l55.2,55.2,55.2-55.2c8-8.7,21.5-9.2,30.1-1.2s9.2,21.5,1.2,30.1c-.4.4-.8.9-1.2,1.2l-55.2,55.2,55.2,55.2Z"/>
    </g>
  </g>
</svg>