<?xml version="1.0" encoding="UTF-8"?>
<svg xmlns="http://www.w3.org/2000/svg" version="1.1" viewBox="0 0 42 41.9">
  <defs>
    <style>
      .cls-1 {
        fill: #fff;
      }
    </style>
  </defs>
  <!-- Generator: Adobe Illustrator 28.7.8, SVG Export Plug-In . SVG Version: 1.2.0 Build 200)  -->
  <g>
    <g id="navbar">
      <path class="cls-1" d="M21,0C9.4,0,0,9.4,0,21s6.6,17.9,15.6,20.3v-15.7h-3.1v-5.4l3.1-.2v-.9c0-4.9,2.3-8.9,8.7-9,1.3,0,3,0,3.9,0v5.6c-1,0-2.2,0-2.9,0-1.6,0-2.5.9-2.5,3.2v1.1h5.1l-1.1,5.6h-4.1v16.3c10.7-.9,19.2-9.9,19.2-20.9,0-11.6-9.4-21-21-21Z"/>
    </g>
  </g>
</svg>