<?xml version="1.0" encoding="UTF-8"?>
<svg xmlns="http://www.w3.org/2000/svg" version="1.1" viewBox="0 0 512.2 477.6">
  <defs>
    <style>
      .cls-1 {
        fill: #d8473a;
      }
    </style>
  </defs>
  <!-- Generator: Adobe Illustrator 28.7.8, SVG Export Plug-In . SVG Version: 1.2.0 Build 200)  -->
  <g>
    <g id="_圖層_1" data-name="圖層_1">
      <g id="_圖層_1-2" data-name="_圖層_1">
        <g id="_01_align_center">
          <path class="cls-1" d="M373.4,0c-48.9.8-93.7,27.6-117.3,70.4C232.4,27.6,187.7.8,138.8,0,59,3.4-2.9,70.6.1,150.4.1,294.9,233.8,461.9,243.8,468.9l12.3,8.7,12.3-8.7c9.9-7,243.7-174,243.7-318.5C515.1,70.7,453.2,3.5,373.4,0ZM256.1,425.1C186.7,373.3,42.8,245.9,42.8,150.3c-3-56.2,39.8-104.3,96-107.7,56.2,3.4,99,51.5,96,107.7h42.7c-3-56.2,39.8-104.3,96-107.7,56.2,3.4,99,51.5,96,107.7,0,95.6-143.9,222.9-213.3,274.8h0Z"/>
        </g>
      </g>
    </g>
  </g>
</svg>