<svg width="833" height="150" viewBox="0 0 833 150" fill="none" xmlns="http://www.w3.org/2000/svg">
<mask id="path-1-outside-1_717_850" maskUnits="userSpaceOnUse" x="0" y="0" width="833" height="150" fill="black">
<rect fill="white" width="833" height="150"/>
<path d="M67.8047 70.8047V71.1953C99.4453 75.3945 108.625 91.0195 108.625 107.23C108.625 129.984 90.5586 146 60.5781 146C54.6211 146 42.6094 145.414 26.2031 145.414C16.8281 145.414 6.96484 145.609 1.39844 146V141.996C14.9727 141.41 17.6094 139.359 17.6094 124.809V25.5898C17.6094 11.0391 14.9727 8.98828 1.39844 8.40234V4.39844C6.96484 4.78906 17.0234 4.98438 25.8125 4.98438C38.4102 4.98438 51.2031 4.59375 55.9883 4.59375C84.0156 4.59375 98.1758 17.582 98.1758 36.0391C98.1758 50.1992 90.168 63.9688 67.8047 70.8047ZM51.0078 8.40234C38.8008 8.40234 36.1641 11.8203 36.1641 25.5898V70.8047H49.6406C73.1758 70.8047 79.0352 55.5703 79.0352 38.1875C79.0352 18.5586 71.0273 8.40234 51.0078 8.40234ZM51.2031 141.41C77.375 141.41 88.6055 128.812 88.6055 106.352C88.6055 86.0391 78.3516 74.2227 52.9609 74.2227H36.1641V124.809C36.1641 138.773 38.8008 141.41 51.2031 141.41ZM227.082 120.414C227.082 125.395 227.473 135.844 228.449 146C214.875 145.414 196.027 145.414 182.648 145.414C170.637 145.414 144.27 145.414 124.641 146V141.996C138.215 141.41 140.852 139.359 140.852 124.809V25.5898C140.852 11.0391 138.215 8.98828 124.641 8.40234V4.39844C144.27 4.98438 170.637 4.98438 182.648 4.98438C194.855 4.98438 212.043 4.98438 224.445 4.39844C223.469 13.7734 223.078 23.4414 223.078 28.0312C223.078 32.8164 223.273 37.4062 223.664 40.4336H219.074C216.438 16.8008 213.41 8.98828 192.219 8.98828H175.617C162.043 8.98828 159.406 11.0391 159.406 25.5898V72.7578H172.688C190.07 72.7578 189.68 55.9609 191.242 46.3906H195.832C195.246 54.8867 195.148 60.6484 195.148 65.2383C195.148 68.9492 195.246 71.8789 195.246 74.8086C195.246 81.3516 195.441 87.9922 196.418 103.227H191.828C190.266 90.4336 190.07 76.7617 172.688 76.7617H159.406V124.809C159.406 139.359 162.043 141.41 175.617 141.41H190.266C215.266 141.41 220.246 132.426 223.078 105.961H227.668C227.277 109.574 227.082 114.848 227.082 120.414ZM289.289 2.15234C302.473 2.15234 308.332 5.96094 313.703 9.57422C316.926 11.625 318.684 12.4062 320.539 12.4062C323.078 12.4062 324.152 9.37891 324.934 3.61719H329.523C328.938 10.6484 328.547 19.2422 328.547 44.4375H323.957C322.492 25.3945 313.312 5.96094 291.145 5.96094C276.887 5.96094 266.73 15.4336 266.73 29.2031C266.73 47.3672 282.355 54.5938 300.324 65.8242C321.125 78.8125 336.359 89.3594 336.359 110.844C336.359 136.234 317.121 148.832 293.879 148.832C279.719 148.832 272.297 145.023 266.535 141.41C263.312 139.359 261.359 138.578 259.699 138.578C257.16 138.578 256.086 141.605 255.305 147.367H250.715C251.301 139.164 251.496 127.641 251.496 99.418H256.086C257.746 123.637 266.926 144.828 292.512 144.828C305.5 144.828 318.488 137.016 318.488 118.168C318.488 101.957 305.891 92.7773 287.336 81.6445C268.293 70.2188 251.691 59.3789 251.691 36.8203C251.691 13.1875 269.562 2.15234 289.289 2.15234ZM464.484 4.39844C463.508 14.5547 463.117 25.0039 463.117 29.9844C463.117 36.4297 463.312 42.1914 463.703 46.3906H459.113C456.281 18.5586 453.352 8.98828 428.352 8.98828H417.512V122.758C417.512 138.969 420.93 141.41 437.727 141.996V146C430.695 145.609 419.172 145.414 408.332 145.414C396.32 145.414 385.09 145.609 378.742 146V141.996C395.539 141.41 398.957 138.969 398.957 122.758V8.98828H388.117C363.117 8.98828 360.09 18.5586 357.355 46.3906H352.766C353.156 42.1914 353.352 36.4297 353.352 29.9844C353.352 25.0039 352.961 14.5547 351.887 4.39844C368.488 4.98438 391.926 4.98438 408.332 4.98438C424.738 4.98438 447.883 4.98438 464.484 4.39844ZM574.641 4.39844V8.40234C561.066 8.98828 558.43 11.0391 558.43 25.5898V124.809C558.43 139.359 561.066 141.41 574.641 141.996V146C568.488 145.609 558.43 145.414 549.25 145.414C538.898 145.414 529.23 145.609 523.664 146V141.996C537.238 141.41 539.875 139.359 539.875 124.809V25.5898C539.875 11.0391 537.238 8.98828 523.664 8.40234V4.39844C529.23 4.78906 538.898 4.98438 549.25 4.98438C558.43 4.98438 568.488 4.78906 574.641 4.39844ZM655.695 1.56641C673.273 1.56641 683.723 7.81641 692.512 14.5547C693.977 15.7266 695.246 16.3125 696.418 16.3125C699.152 16.3125 700.812 12.6016 701.496 4.39844H706.086C705.5 14.1641 705.305 27.1523 705.305 50.3945H700.715C697.883 33.4023 696.32 28.0312 690.656 20.8047C682.258 9.96484 669.074 5.17969 655.305 5.17969C629.23 5.17969 612.043 32.2305 612.043 75.5898C612.043 120.219 631.477 144.828 657.258 144.828C669.27 144.828 683.918 140.434 691.438 129.594C697.297 121.781 698.664 114.164 700.715 97.9531H705.305C705.305 122.172 705.5 135.844 706.086 146H701.496C700.812 137.797 699.445 134.184 696.613 134.184C695.539 134.184 694.172 134.77 692.512 135.844C682.648 142.777 672.688 148.832 655.5 148.832C617.512 148.832 592.121 122.172 592.121 76.3711C592.121 31.6445 618.488 1.56641 655.695 1.56641ZM830.012 120.414C830.012 125.395 830.402 135.844 831.379 146C817.805 145.414 798.957 145.414 785.578 145.414C773.566 145.414 747.199 145.414 727.57 146V141.996C741.145 141.41 743.781 139.359 743.781 124.809V25.5898C743.781 11.0391 741.145 8.98828 727.57 8.40234V4.39844C747.199 4.98438 773.566 4.98438 785.578 4.98438C797.785 4.98438 814.973 4.98438 827.375 4.39844C826.398 13.7734 826.008 23.4414 826.008 28.0312C826.008 32.8164 826.203 37.4062 826.594 40.4336H822.004C819.367 16.8008 816.34 8.98828 795.148 8.98828H778.547C764.973 8.98828 762.336 11.0391 762.336 25.5898V72.7578H775.617C793 72.7578 792.609 55.9609 794.172 46.3906H798.762C798.176 54.8867 798.078 60.6484 798.078 65.2383C798.078 68.9492 798.176 71.8789 798.176 74.8086C798.176 81.3516 798.371 87.9922 799.348 103.227H794.758C793.195 90.4336 793 76.7617 775.617 76.7617H762.336V124.809C762.336 139.359 764.973 141.41 778.547 141.41H793.195C818.195 141.41 823.176 132.426 826.008 105.961H830.598C830.207 109.574 830.012 114.848 830.012 120.414Z"/>
</mask>
<path d="M67.8047 70.8047L67.5124 69.8484L66.8047 70.0647V70.8047H67.8047ZM67.8047 71.1953H66.8047V72.0714L67.6731 72.1866L67.8047 71.1953ZM1.39844 146H0.398438V147.073L1.46844 146.998L1.39844 146ZM1.39844 141.996L1.35531 140.997L0.398438 141.038V141.996H1.39844ZM1.39844 8.40234H0.398438V9.36011L1.35531 9.40141L1.39844 8.40234ZM1.39844 4.39844L1.46844 3.40089L0.398438 3.3258V4.39844H1.39844ZM36.1641 70.8047H35.1641V71.8047H36.1641V70.8047ZM36.1641 74.2227V73.2227H35.1641V74.2227H36.1641ZM67.8047 70.8047H66.8047V71.1953H67.8047H68.8047V70.8047H67.8047ZM67.8047 71.1953L67.6731 72.1866C83.3558 74.268 93.3194 79.1612 99.3615 85.404C105.39 91.633 107.625 99.3197 107.625 107.23H108.625H109.625C109.625 98.9303 107.27 90.699 100.799 84.013C94.3408 77.3407 83.8942 72.3219 67.9362 70.204L67.8047 71.1953ZM108.625 107.23H107.625C107.625 118.322 103.232 127.728 95.2062 134.378C87.1641 141.042 75.3976 145 60.5781 145V146V147C75.7391 147 87.996 142.95 96.4823 135.918C104.985 128.872 109.625 118.893 109.625 107.23H108.625ZM60.5781 146V145C57.6164 145 53.1481 144.854 47.3343 144.707C41.532 144.561 34.4181 144.414 26.2031 144.414V145.414V146.414C34.3944 146.414 41.4895 146.56 47.2838 146.707C53.0667 146.853 57.5828 147 60.5781 147V146ZM26.2031 145.414V144.414C16.8244 144.414 6.93181 144.609 1.32843 145.002L1.39844 146L1.46844 146.998C6.99788 146.61 16.8318 146.414 26.2031 146.414V145.414ZM1.39844 146H2.39844V141.996H1.39844H0.398438V146H1.39844ZM1.39844 141.996L1.44156 142.995C4.84358 142.848 7.63236 142.608 9.88479 142.084C12.1486 141.556 13.951 140.725 15.3086 139.339C16.6666 137.953 17.4827 136.111 17.965 133.751C18.4452 131.401 18.6094 128.462 18.6094 124.809H17.6094H16.6094C16.6094 128.43 16.444 131.205 16.0055 133.35C15.5693 135.485 14.8778 136.921 13.8799 137.939C12.8815 138.958 11.4795 139.659 9.43125 140.136C7.37155 140.615 4.74041 140.851 1.35531 140.997L1.39844 141.996ZM17.6094 124.809H18.6094V25.5898H17.6094H16.6094V124.809H17.6094ZM17.6094 25.5898H18.6094C18.6094 21.9361 18.4452 18.9975 17.965 16.6479C17.4827 14.2872 16.6666 12.4457 15.3086 11.0595C13.951 9.67374 12.1486 8.84204 9.88479 8.31493C7.63236 7.79048 4.84358 7.55012 1.44156 7.40327L1.39844 8.40234L1.35531 9.40141C4.74041 9.54753 7.37155 9.78325 9.43125 10.2628C11.4795 10.7397 12.8815 11.44 13.8799 12.4591C14.8778 13.4777 15.5693 14.9137 16.0055 17.0483C16.444 19.1939 16.6094 21.9682 16.6094 25.5898H17.6094ZM1.39844 8.40234H2.39844V4.39844H1.39844H0.398438V8.40234H1.39844ZM1.39844 4.39844L1.32843 5.39598C6.9317 5.7892 17.0195 5.98438 25.8125 5.98438V4.98438V3.98438C17.0274 3.98438 6.99799 3.78893 1.46844 3.40089L1.39844 4.39844ZM25.8125 4.98438V5.98438C32.1207 5.98438 38.4756 5.88658 43.8483 5.7889C49.2302 5.69104 53.6078 5.59375 55.9883 5.59375V4.59375V3.59375C53.5836 3.59375 49.1721 3.69177 43.8119 3.78923C38.4423 3.88686 32.102 3.98438 25.8125 3.98438V4.98438ZM55.9883 4.59375V5.59375C69.8618 5.59375 80.1625 8.80972 86.9731 14.1803C93.7556 19.5287 97.1758 27.0897 97.1758 36.0391H98.1758H99.1758C99.1758 26.5314 95.5159 18.3698 88.2115 12.6098C80.9351 6.87192 70.1422 3.59375 55.9883 3.59375V4.59375ZM98.1758 36.0391H97.1758C97.1758 42.924 95.2323 49.6801 90.5921 55.5482C85.9482 61.421 78.5467 66.4754 67.5124 69.8484L67.8047 70.8047L68.097 71.761C79.4259 68.298 87.21 63.0497 92.1609 56.7887C97.1154 50.5231 99.1758 43.3143 99.1758 36.0391H98.1758ZM51.0078 8.40234V7.40234C44.8997 7.40234 40.7505 8.2331 38.2457 11.1856C37.0038 12.6496 36.2421 14.5496 35.7851 16.9048C35.3289 19.2557 35.1641 22.1264 35.1641 25.5898H36.1641H37.1641C37.1641 22.1685 37.3288 19.4484 37.7485 17.2858C38.1673 15.1274 38.8278 13.5911 39.7709 12.4794C41.6363 10.2806 44.9089 9.40234 51.0078 9.40234V8.40234ZM36.1641 25.5898H35.1641V70.8047H36.1641H37.1641V25.5898H36.1641ZM36.1641 70.8047V71.8047H49.6406V70.8047V69.8047H36.1641V70.8047ZM49.6406 70.8047V71.8047C61.6427 71.8047 69.329 67.9054 73.9687 61.6078C78.5635 55.371 80.0352 46.9579 80.0352 38.1875H79.0352H78.0352C78.0352 46.8 76.5771 54.6954 72.3585 60.4215C68.1847 66.0867 61.1737 69.8047 49.6406 69.8047V70.8047ZM79.0352 38.1875H80.0352C80.0352 28.2655 78.0159 20.5232 73.2713 15.2642C68.507 9.98345 61.1752 7.40234 51.0078 7.40234V8.40234V9.40234C60.8599 9.40234 67.5418 11.8994 71.7863 16.6039C76.0505 21.3303 78.0352 28.4806 78.0352 38.1875H79.0352ZM51.2031 141.41V142.41C64.4336 142.41 74.083 139.226 80.4186 133.018C86.7584 126.806 89.6055 117.736 89.6055 106.352H88.6055H87.6055C87.6055 117.428 84.8373 125.888 79.0189 131.589C73.1963 137.295 64.1445 140.41 51.2031 140.41V141.41ZM88.6055 106.352H89.6055C89.6055 96.0382 87.0009 87.6967 80.9963 81.9476C75.0005 76.207 65.7926 73.2227 52.9609 73.2227V74.2227V75.2227C65.5199 75.2227 74.1342 78.1465 79.6131 83.3922C85.0831 88.6295 87.6055 96.3524 87.6055 106.352H88.6055ZM52.9609 74.2227V73.2227H36.1641V74.2227V75.2227H52.9609V74.2227ZM36.1641 74.2227H35.1641V124.809H36.1641H37.1641V74.2227H36.1641ZM36.1641 124.809H35.1641C35.1641 128.319 35.3286 131.181 35.7892 133.49C36.2509 135.805 37.0243 137.638 38.2963 139.023C40.8377 141.789 45.045 142.41 51.2031 142.41V141.41V140.41C44.9589 140.41 41.6466 139.713 39.7691 137.67C38.8317 136.649 38.1707 135.205 37.7505 133.098C37.3291 130.985 37.1641 128.281 37.1641 124.809H36.1641ZM228.449 146L228.406 146.999L229.555 147.049L229.445 145.904L228.449 146ZM124.641 146H123.641V147.03L124.67 147L124.641 146ZM124.641 141.996L124.597 140.997L123.641 141.038V141.996H124.641ZM124.641 8.40234H123.641V9.36011L124.597 9.40141L124.641 8.40234ZM124.641 4.39844L124.67 3.39888L123.641 3.36814V4.39844H124.641ZM224.445 4.39844L225.44 4.50204L225.56 3.34464L224.398 3.39955L224.445 4.39844ZM223.664 40.4336V41.4336H224.801L224.656 40.3056L223.664 40.4336ZM219.074 40.4336L218.08 40.5445L218.18 41.4336H219.074V40.4336ZM159.406 72.7578H158.406V73.7578H159.406V72.7578ZM191.242 46.3906V45.3906H190.392L190.255 46.2295L191.242 46.3906ZM195.832 46.3906L196.83 46.4594L196.903 45.3906H195.832V46.3906ZM196.418 103.227V104.227H197.484L197.416 103.163L196.418 103.227ZM191.828 103.227L190.836 103.348L190.943 104.227H191.828V103.227ZM159.406 76.7617V75.7617H158.406V76.7617H159.406ZM223.078 105.961V104.961H222.179L222.084 105.855L223.078 105.961ZM227.668 105.961L228.662 106.068L228.782 104.961H227.668V105.961ZM227.082 120.414H226.082C226.082 125.428 226.474 135.909 227.454 146.096L228.449 146L229.445 145.904C228.471 135.779 228.082 125.361 228.082 120.414H227.082ZM228.449 146L228.492 145.001C214.892 144.414 196.02 144.414 182.648 144.414V145.414V146.414C196.034 146.414 214.858 146.414 228.406 146.999L228.449 146ZM182.648 145.414V144.414C170.64 144.414 144.257 144.414 124.611 145L124.641 146L124.67 147C144.282 146.414 170.633 146.414 182.648 146.414V145.414ZM124.641 146H125.641V141.996H124.641H123.641V146H124.641ZM124.641 141.996L124.684 142.995C128.086 142.848 130.875 142.608 133.127 142.084C135.391 141.556 137.193 140.725 138.551 139.339C139.909 137.953 140.725 136.111 141.207 133.751C141.687 131.401 141.852 128.462 141.852 124.809H140.852H139.852C139.852 128.43 139.686 131.205 139.248 133.35C138.812 135.485 138.12 136.921 137.122 137.939C136.124 138.958 134.722 139.659 132.673 140.136C130.614 140.615 127.983 140.851 124.597 140.997L124.641 141.996ZM140.852 124.809H141.852V25.5898H140.852H139.852V124.809H140.852ZM140.852 25.5898H141.852C141.852 21.9361 141.687 18.9975 141.207 16.6479C140.725 14.2872 139.909 12.4457 138.551 11.0595C137.193 9.67374 135.391 8.84204 133.127 8.31493C130.875 7.79048 128.086 7.55012 124.684 7.40327L124.641 8.40234L124.597 9.40141C127.983 9.54753 130.614 9.78325 132.673 10.2628C134.722 10.7397 136.124 11.44 137.122 12.4591C138.12 13.4777 138.812 14.9137 139.248 17.0483C139.686 19.1939 139.852 21.9682 139.852 25.5898H140.852ZM124.641 8.40234H125.641V4.39844H124.641H123.641V8.40234H124.641ZM124.641 4.39844L124.611 5.39799C144.257 5.98446 170.64 5.98438 182.648 5.98438V4.98438V3.98438C170.633 3.98438 144.282 3.98429 124.67 3.39888L124.641 4.39844ZM182.648 4.98438V5.98438C194.848 5.98438 212.062 5.98461 224.493 5.39732L224.445 4.39844L224.398 3.39955C212.024 3.98414 194.863 3.98438 182.648 3.98438V4.98438ZM224.445 4.39844L223.451 4.29483C222.471 13.7031 222.078 23.4057 222.078 28.0312H223.078H224.078C224.078 23.4771 224.467 13.8438 225.44 4.50204L224.445 4.39844ZM223.078 28.0312H222.078C222.078 32.8314 222.274 37.4711 222.672 40.5616L223.664 40.4336L224.656 40.3056C224.273 37.3414 224.078 32.8014 224.078 28.0312H223.078ZM223.664 40.4336V39.4336H219.074V40.4336V41.4336H223.664V40.4336ZM219.074 40.4336L220.068 40.3227C219.408 34.4099 218.719 29.4362 217.717 25.314C216.716 21.1918 215.385 17.8506 213.4 15.2429C209.369 9.94681 202.893 7.98828 192.219 7.98828V8.98828V9.98828C202.736 9.98828 208.369 11.936 211.809 16.4543C213.559 18.7539 214.804 21.797 215.774 25.7863C216.744 29.7757 217.422 34.6409 218.08 40.5445L219.074 40.4336ZM192.219 8.98828V7.98828H175.617V8.98828V9.98828H192.219V8.98828ZM175.617 8.98828V7.98828C172.214 7.98828 169.423 8.11536 167.167 8.55449C164.899 8.99583 163.086 9.76806 161.718 11.1217C160.351 12.475 159.533 14.3053 159.051 16.6562C158.57 18.9973 158.406 21.9364 158.406 25.5898H159.406H160.406C160.406 21.9679 160.572 19.1941 161.01 17.0582C161.446 14.9323 162.136 13.5216 163.125 12.5433C164.113 11.5654 165.504 10.9155 167.549 10.5177C169.604 10.1175 172.233 9.98828 175.617 9.98828V8.98828ZM159.406 25.5898H158.406V72.7578H159.406H160.406V25.5898H159.406ZM159.406 72.7578V73.7578H172.688V72.7578V71.7578H159.406V72.7578ZM172.688 72.7578V73.7578C177.201 73.7578 180.647 72.6648 183.279 70.7996C185.904 68.9385 187.634 66.3676 188.819 63.551C190.001 60.742 190.657 57.6515 191.116 54.7018C191.346 53.2246 191.529 51.7689 191.701 50.396C191.875 49.0166 192.037 47.7265 192.229 46.5518L191.242 46.3906L190.255 46.2295C190.056 47.4474 189.889 48.7756 189.717 50.1466C189.544 51.5241 189.365 52.9508 189.14 54.3941C188.69 57.2855 188.064 60.1887 186.976 62.7752C185.891 65.3541 184.361 67.5806 182.122 69.168C179.889 70.7512 176.866 71.7578 172.688 71.7578V72.7578ZM191.242 46.3906V47.3906H195.832V46.3906V45.3906H191.242V46.3906ZM195.832 46.3906L194.834 46.3218C194.247 54.8443 194.148 60.6292 194.148 65.2383H195.148H196.148C196.148 60.6677 196.246 54.9292 196.83 46.4594L195.832 46.3906ZM195.148 65.2383H194.148C194.148 67.1022 194.173 68.7692 194.197 70.332C194.222 71.897 194.246 73.3532 194.246 74.8086H195.246H196.246C196.246 73.3343 196.222 71.8608 196.197 70.3008C196.173 68.7386 196.148 67.0853 196.148 65.2383H195.148ZM195.246 74.8086H194.246C194.246 81.3812 194.443 88.0452 195.42 103.291L196.418 103.227L197.416 103.163C196.44 87.9392 196.246 81.3219 196.246 74.8086H195.246ZM196.418 103.227V102.227H191.828V103.227V104.227H196.418V103.227ZM191.828 103.227L192.821 103.105C192.435 99.946 192.123 96.6394 191.609 93.5312C191.093 90.4125 190.36 87.3964 189.091 84.7628C187.815 82.1141 185.991 79.8398 183.304 78.2387C180.623 76.642 177.163 75.7617 172.688 75.7617V76.7617V77.7617C176.904 77.7617 179.986 78.5904 182.28 79.957C184.567 81.3191 186.149 83.2623 187.29 85.6308C188.438 88.0142 189.133 90.8148 189.636 93.8576C190.141 96.9109 190.44 100.111 190.836 103.348L191.828 103.227ZM172.688 76.7617V75.7617H159.406V76.7617V77.7617H172.688V76.7617ZM159.406 76.7617H158.406V124.809H159.406H160.406V76.7617H159.406ZM159.406 124.809H158.406C158.406 128.462 158.57 131.401 159.051 133.742C159.533 136.093 160.351 137.923 161.718 139.277C163.086 140.63 164.899 141.403 167.167 141.844C169.423 142.283 172.214 142.41 175.617 142.41V141.41V140.41C172.233 140.41 169.604 140.281 167.549 139.881C165.504 139.483 164.113 138.833 163.125 137.855C162.136 136.877 161.446 135.466 161.01 133.34C160.572 131.204 160.406 128.431 160.406 124.809H159.406ZM175.617 141.41V142.41H190.266V141.41V140.41H175.617V141.41ZM190.266 141.41V142.41C202.84 142.41 210.726 140.161 215.747 134.258C220.697 128.438 222.66 119.268 224.072 106.067L223.078 105.961L222.084 105.855C220.664 119.119 218.721 127.674 214.223 132.962C209.795 138.168 202.691 140.41 190.266 140.41V141.41ZM223.078 105.961V106.961H227.668V105.961V104.961H223.078V105.961ZM227.668 105.961L226.674 105.853C226.278 109.519 226.082 114.833 226.082 120.414H227.082H228.082C228.082 114.862 228.277 109.63 228.662 106.068L227.668 105.961ZM313.703 9.57422L313.145 10.4039L313.156 10.411L313.166 10.4179L313.703 9.57422ZM324.934 3.61719V2.61719H324.06L323.943 3.48282L324.934 3.61719ZM329.523 3.61719L330.52 3.70023L330.61 2.61719H329.523V3.61719ZM328.547 44.4375V45.4375H329.547V44.4375H328.547ZM323.957 44.4375L322.96 44.5142L323.031 45.4375H323.957V44.4375ZM300.324 65.8242L299.794 66.6722L299.795 66.6724L300.324 65.8242ZM266.535 141.41L265.998 142.254L266.004 142.257L266.535 141.41ZM255.305 147.367V148.367H256.178L256.296 147.502L255.305 147.367ZM250.715 147.367L249.717 147.296L249.641 148.367H250.715V147.367ZM251.496 99.418V98.418H250.496V99.418H251.496ZM256.086 99.418L257.084 99.3496L257.02 98.418H256.086V99.418ZM289.289 2.15234V3.15234C295.78 3.15234 300.421 4.08919 304.078 5.44587C307.741 6.80473 310.463 8.59988 313.145 10.4039L313.703 9.57422L314.261 8.7445C311.572 6.93527 308.679 5.01949 304.774 3.57073C300.862 2.11979 295.982 1.15234 289.289 1.15234V2.15234ZM313.703 9.57422L313.166 10.4179C316.389 12.4687 318.366 13.4062 320.539 13.4062V12.4062V11.4062C319.001 11.4062 317.463 10.7813 314.24 8.73056L313.703 9.57422ZM320.539 12.4062V13.4062C321.392 13.4062 322.157 13.145 322.81 12.6258C323.443 12.1223 323.922 11.4154 324.303 10.5924C325.055 8.96661 325.533 6.63655 325.925 3.75155L324.934 3.61719L323.943 3.48282C323.553 6.35954 323.103 8.42401 322.488 9.75235C322.185 10.4064 321.871 10.8165 321.564 11.0606C321.277 11.2891 320.955 11.4062 320.539 11.4062V12.4062ZM324.934 3.61719V4.61719H329.523V3.61719V2.61719H324.934V3.61719ZM329.523 3.61719L328.527 3.53414C327.937 10.6084 327.547 19.2361 327.547 44.4375H328.547H329.547C329.547 19.2482 329.938 10.6885 330.52 3.70023L329.523 3.61719ZM328.547 44.4375V43.4375H323.957V44.4375V45.4375H328.547V44.4375ZM323.957 44.4375L324.954 44.3608C324.213 34.7268 321.517 24.9085 316.124 17.4711C310.701 9.99191 302.572 4.96094 291.145 4.96094V5.96094V6.96094C301.885 6.96094 309.43 11.6468 314.505 18.6451C319.61 25.6853 322.236 35.1052 322.96 44.5142L323.957 44.4375ZM291.145 5.96094V4.96094C283.792 4.96094 277.433 7.40608 272.903 11.6921C268.37 15.9824 265.73 22.0616 265.73 29.2031H266.73H267.73C267.73 22.5751 270.169 17.0332 274.278 13.1448C278.392 9.25212 284.239 6.96094 291.145 6.96094V5.96094ZM266.73 29.2031H265.73C265.73 38.6419 269.818 45.2431 276.124 50.8604C282.36 56.4162 290.888 61.1056 299.794 66.6722L300.324 65.8242L300.854 64.9762C291.792 59.3124 283.523 54.7732 277.454 49.3671C271.455 44.0225 267.73 37.9285 267.73 29.2031H266.73ZM300.324 65.8242L299.795 66.6724C320.675 79.7105 335.359 89.987 335.359 110.844H336.359H337.359C337.359 88.7318 321.575 77.9145 300.854 64.976L300.324 65.8242ZM336.359 110.844H335.359C335.359 123.261 330.668 132.466 323.201 138.586C315.708 144.727 305.331 147.832 293.879 147.832V148.832V149.832C305.669 149.832 316.532 146.638 324.469 140.133C332.431 133.606 337.359 123.817 337.359 110.844H336.359ZM293.879 148.832V147.832C279.949 147.832 272.709 144.102 267.066 140.563L266.535 141.41L266.004 142.257C271.885 145.945 279.488 149.832 293.879 149.832V148.832ZM266.535 141.41L267.072 140.566C263.837 138.508 261.67 137.578 259.699 137.578V138.578V139.578C261.048 139.578 262.788 140.211 265.998 142.254L266.535 141.41ZM259.699 138.578V137.578C258.846 137.578 258.081 137.839 257.429 138.359C256.796 138.862 256.316 139.569 255.935 140.392C255.183 142.018 254.705 144.348 254.314 147.233L255.305 147.367L256.296 147.502C256.686 144.625 257.136 142.56 257.75 141.232C258.053 140.578 258.367 140.168 258.674 139.924C258.961 139.695 259.283 139.578 259.699 139.578V138.578ZM255.305 147.367V146.367H250.715V147.367V148.367H255.305V147.367ZM250.715 147.367L251.712 147.438C252.301 139.193 252.496 127.632 252.496 99.418H251.496H250.496C250.496 127.649 250.3 139.135 249.717 147.296L250.715 147.367ZM251.496 99.418V100.418H256.086V99.418V98.418H251.496V99.418ZM256.086 99.418L255.088 99.4864C255.924 111.675 258.656 123.233 264.502 131.77C270.389 140.367 279.389 145.828 292.512 145.828V144.828V143.828C280.049 143.828 271.666 138.693 266.152 130.64C260.596 122.527 257.908 111.38 257.084 99.3496L256.086 99.418ZM292.512 144.828V145.828C299.195 145.828 305.942 143.819 311.033 139.315C316.146 134.792 319.488 127.84 319.488 118.168H318.488H317.488C317.488 127.344 314.337 133.722 309.708 137.817C305.058 141.931 298.817 143.828 292.512 143.828V144.828ZM318.488 118.168H319.488C319.488 109.756 316.202 103.171 310.592 97.3105C305.02 91.4888 297.122 86.35 287.85 80.787L287.336 81.6445L286.821 82.502C296.105 88.0719 303.783 93.0893 309.148 98.6935C314.476 104.259 317.488 110.369 317.488 118.168H318.488ZM287.336 81.6445L287.85 80.787C268.733 69.3163 252.691 58.7422 252.691 36.8203H251.691H250.691C250.691 60.0156 267.853 71.1212 286.821 82.502L287.336 81.6445ZM251.691 36.8203H252.691C252.691 25.2822 257.041 16.9061 263.729 11.3958C270.443 5.86364 279.6 3.15234 289.289 3.15234V2.15234V1.15234C279.252 1.15234 269.61 3.95863 262.457 9.85225C255.277 15.7677 250.691 24.7256 250.691 36.8203H251.691ZM464.484 4.39844L465.48 4.49415L465.589 3.35883L464.449 3.39906L464.484 4.39844ZM463.703 46.3906V47.3906H464.8L464.699 46.298L463.703 46.3906ZM459.113 46.3906L458.118 46.4919L458.21 47.3906H459.113V46.3906ZM417.512 8.98828V7.98828H416.512V8.98828H417.512ZM437.727 141.996H438.727V141.03L437.761 140.997L437.727 141.996ZM437.727 146L437.671 146.998L438.727 147.057V146H437.727ZM378.742 146H377.742V147.063L378.804 146.998L378.742 146ZM378.742 141.996L378.707 140.997L377.742 141.03V141.996H378.742ZM398.957 8.98828H399.957V7.98828H398.957V8.98828ZM357.355 46.3906V47.3906H358.262L358.351 46.4884L357.355 46.3906ZM352.766 46.3906L351.77 46.298L351.668 47.3906H352.766V46.3906ZM351.887 4.39844L351.922 3.39906L350.771 3.35844L350.892 4.50362L351.887 4.39844ZM464.484 4.39844L463.489 4.30273C462.509 14.4897 462.117 24.9709 462.117 29.9844H463.117H464.117C464.117 25.0369 464.506 14.6197 465.48 4.49415L464.484 4.39844ZM463.117 29.9844H462.117C462.117 36.4439 462.313 42.2402 462.707 46.4832L463.703 46.3906L464.699 46.298C464.312 42.1426 464.117 36.4154 464.117 29.9844H463.117ZM463.703 46.3906V45.3906H459.113V46.3906V47.3906H463.703V46.3906ZM459.113 46.3906L460.108 46.2894C459.4 39.3306 458.681 33.4625 457.604 28.589C456.527 23.7165 455.076 19.762 452.858 16.6696C448.354 10.3895 440.936 7.98828 428.352 7.98828V8.98828V9.98828C440.767 9.98828 447.314 12.3722 451.233 17.8353C453.226 20.6145 454.601 24.271 455.651 29.0207C456.701 33.7695 457.41 39.5347 458.118 46.4919L459.113 46.3906ZM428.352 8.98828V7.98828H417.512V8.98828V9.98828H428.352V8.98828ZM417.512 8.98828H416.512V122.758H417.512H418.512V8.98828H417.512ZM417.512 122.758H416.512C416.512 126.831 416.725 130.115 417.334 132.746C417.947 135.395 418.976 137.442 420.644 138.973C422.303 140.495 424.498 141.417 427.276 142.001C430.048 142.585 433.483 142.849 437.692 142.995L437.727 141.996L437.761 140.997C433.572 140.851 430.281 140.59 427.688 140.044C425.1 139.499 423.292 138.688 421.996 137.499C420.711 136.32 419.835 134.682 419.282 132.295C418.726 129.891 418.512 126.79 418.512 122.758H417.512ZM437.727 141.996H436.727V146H437.727H438.727V141.996H437.727ZM437.727 146L437.782 145.002C430.723 144.609 419.177 144.414 408.332 144.414V145.414V146.414C419.167 146.414 430.668 146.609 437.671 146.998L437.727 146ZM408.332 145.414V144.414C396.318 144.414 385.061 144.609 378.681 145.002L378.742 146L378.804 146.998C385.118 146.61 396.322 146.414 408.332 146.414V145.414ZM378.742 146H379.742V141.996H378.742H377.742V146H378.742ZM378.742 141.996L378.777 142.995C382.986 142.849 386.421 142.585 389.193 142.001C391.97 141.417 394.166 140.495 395.824 138.973C397.493 137.442 398.522 135.395 399.135 132.746C399.744 130.115 399.957 126.831 399.957 122.758H398.957H397.957C397.957 126.79 397.743 129.891 397.186 132.295C396.634 134.682 395.758 136.32 394.472 137.499C393.177 138.688 391.368 139.499 388.781 140.044C386.188 140.59 382.897 140.851 378.707 140.997L378.742 141.996ZM398.957 122.758H399.957V8.98828H398.957H397.957V122.758H398.957ZM398.957 8.98828V7.98828H388.117V8.98828V9.98828H398.957V8.98828ZM388.117 8.98828V7.98828C375.533 7.98828 368.092 10.3893 363.575 16.6685C361.35 19.7612 359.896 23.7163 358.823 28.5899C357.75 33.4644 357.044 39.3331 356.36 46.2929L357.355 46.3906L358.351 46.4884C359.034 39.5321 359.732 33.7676 360.777 29.0198C361.822 24.2712 363.2 20.6152 365.199 17.8364C369.129 12.3724 375.702 9.98828 388.117 9.98828V8.98828ZM357.355 46.3906V45.3906H352.766V46.3906V47.3906H357.355V46.3906ZM352.766 46.3906L353.761 46.4832C354.156 42.2402 354.352 36.4439 354.352 29.9844H353.352H352.352C352.352 36.4154 352.156 42.1426 351.77 46.298L352.766 46.3906ZM353.352 29.9844H354.352C354.352 24.9705 353.959 14.4861 352.881 4.29325L351.887 4.39844L350.892 4.50362C351.963 14.6233 352.352 25.0374 352.352 29.9844H353.352ZM351.887 4.39844L351.851 5.39782C368.474 5.98451 391.932 5.98438 408.332 5.98438V4.98438V3.98438C391.92 3.98438 368.502 3.98424 351.922 3.39906L351.887 4.39844ZM408.332 4.98438V5.98438C424.732 5.98438 447.897 5.98451 464.52 5.39782L464.484 4.39844L464.449 3.39906C447.869 3.98424 424.744 3.98438 408.332 3.98438V4.98438ZM574.641 4.39844H575.641V3.33293L574.577 3.40045L574.641 4.39844ZM574.641 8.40234L574.684 9.40141L575.641 9.36011V8.40234H574.641ZM574.641 141.996H575.641V141.038L574.684 140.997L574.641 141.996ZM574.641 146L574.577 146.998L575.641 147.066V146H574.641ZM523.664 146H522.664V147.073L523.734 146.998L523.664 146ZM523.664 141.996L523.621 140.997L522.664 141.038V141.996H523.664ZM523.664 8.40234H522.664V9.36011L523.621 9.40141L523.664 8.40234ZM523.664 4.39844L523.734 3.40089L522.664 3.3258V4.39844H523.664ZM574.641 4.39844H573.641V8.40234H574.641H575.641V4.39844H574.641ZM574.641 8.40234L574.597 7.40327C571.195 7.55012 568.407 7.79048 566.154 8.31493C563.89 8.84204 562.088 9.67374 560.731 11.0595C559.372 12.4457 558.556 14.2872 558.074 16.6479C557.594 18.9975 557.43 21.9361 557.43 25.5898H558.43H559.43C559.43 21.9682 559.595 19.1939 560.034 17.0483C560.47 14.9137 561.161 13.4777 562.159 12.4591C563.158 11.44 564.56 10.7397 566.608 10.2628C568.668 9.78325 571.299 9.54753 574.684 9.40141L574.641 8.40234ZM558.43 25.5898H557.43V124.809H558.43H559.43V25.5898H558.43ZM558.43 124.809H557.43C557.43 128.462 557.594 131.401 558.074 133.751C558.556 136.111 559.372 137.953 560.731 139.339C562.088 140.725 563.89 141.556 566.154 142.084C568.407 142.608 571.195 142.848 574.597 142.995L574.641 141.996L574.684 140.997C571.299 140.851 568.668 140.615 566.608 140.136C564.56 139.659 563.158 138.958 562.159 137.939C561.161 136.921 560.47 135.485 560.034 133.35C559.595 131.205 559.43 128.43 559.43 124.809H558.43ZM574.641 141.996H573.641V146H574.641H575.641V141.996H574.641ZM574.641 146L574.704 145.002C568.52 144.609 558.436 144.414 549.25 144.414V145.414V146.414C558.423 146.414 568.457 146.609 574.577 146.998L574.641 146ZM549.25 145.414V144.414C538.895 144.414 529.198 144.609 523.594 145.002L523.664 146L523.734 146.998C529.263 146.61 538.901 146.414 549.25 146.414V145.414ZM523.664 146H524.664V141.996H523.664H522.664V146H523.664ZM523.664 141.996L523.707 142.995C527.109 142.848 529.898 142.608 532.15 142.084C534.414 141.556 536.217 140.725 537.574 139.339C538.932 137.953 539.748 136.111 540.231 133.751C540.711 131.401 540.875 128.462 540.875 124.809H539.875H538.875C538.875 128.43 538.71 131.205 538.271 133.35C537.835 135.485 537.143 136.921 536.146 137.939C535.147 138.958 533.745 139.659 531.697 140.136C529.637 140.615 527.006 140.851 523.621 140.997L523.664 141.996ZM539.875 124.809H540.875V25.5898H539.875H538.875V124.809H539.875ZM539.875 25.5898H540.875C540.875 21.9361 540.711 18.9975 540.231 16.6479C539.748 14.2872 538.932 12.4457 537.574 11.0595C536.217 9.67374 534.414 8.84204 532.15 8.31493C529.898 7.79048 527.109 7.55012 523.707 7.40327L523.664 8.40234L523.621 9.40141C527.006 9.54753 529.637 9.78325 531.697 10.2628C533.745 10.7397 535.147 11.44 536.146 12.4591C537.143 13.4777 537.835 14.9137 538.271 17.0483C538.71 19.1939 538.875 21.9682 538.875 25.5898H539.875ZM523.664 8.40234H524.664V4.39844H523.664H522.664V8.40234H523.664ZM523.664 4.39844L523.594 5.39598C529.198 5.78923 538.895 5.98438 549.25 5.98438V4.98438V3.98438C538.901 3.98438 529.263 3.7889 523.734 3.40089L523.664 4.39844ZM549.25 4.98438V5.98438C558.436 5.98438 568.52 5.78908 574.704 5.39643L574.641 4.39844L574.577 3.40045C568.457 3.78904 558.423 3.98438 549.25 3.98438V4.98438ZM692.512 14.5547L693.136 13.7738L693.128 13.7674L693.12 13.7611L692.512 14.5547ZM701.496 4.39844V3.39844H700.576L700.5 4.31539L701.496 4.39844ZM706.086 4.39844L707.084 4.45833L707.148 3.39844H706.086V4.39844ZM705.305 50.3945V51.3945H706.305V50.3945H705.305ZM700.715 50.3945L699.728 50.5589L699.868 51.3945H700.715V50.3945ZM690.656 20.8047L689.866 21.4172L689.869 21.4216L690.656 20.8047ZM691.438 129.594L690.638 128.994L690.626 129.009L690.616 129.024L691.438 129.594ZM700.715 97.9531V96.9531H699.833L699.723 97.8276L700.715 97.9531ZM705.305 97.9531H706.305V96.9531H705.305V97.9531ZM706.086 146V147H707.145L707.084 145.942L706.086 146ZM701.496 146L700.5 146.083L700.576 147H701.496V146ZM692.512 135.844L691.968 135.004L691.952 135.015L691.937 135.026L692.512 135.844ZM655.695 1.56641V2.56641C672.977 2.56641 683.217 8.68845 691.903 15.3483L692.512 14.5547L693.12 13.7611C684.229 6.94437 673.57 0.566406 655.695 0.566406V1.56641ZM692.512 14.5547L691.887 15.3356C693.42 16.5622 694.911 17.3125 696.418 17.3125V16.3125V15.3125C695.582 15.3125 694.533 14.891 693.136 13.7738L692.512 14.5547ZM696.418 16.3125V17.3125C698.372 17.3125 699.735 15.937 700.644 13.8276C701.553 11.7213 702.149 8.61074 702.493 4.48148L701.496 4.39844L700.5 4.31539C700.16 8.38926 699.584 11.2357 698.808 13.0356C698.033 14.8325 697.198 15.3125 696.418 15.3125V16.3125ZM701.496 4.39844V5.39844H706.086V4.39844V3.39844H701.496V4.39844ZM706.086 4.39844L705.088 4.33855C704.5 14.138 704.305 27.1543 704.305 50.3945H705.305H706.305C706.305 27.1504 706.5 14.1902 707.084 4.45833L706.086 4.39844ZM705.305 50.3945V49.3945H700.715V50.3945V51.3945H705.305V50.3945ZM700.715 50.3945L701.701 50.2301C698.867 33.2238 697.276 27.6291 691.443 20.1878L690.656 20.8047L689.869 21.4216C695.365 28.4334 696.899 33.5809 699.728 50.5589L700.715 50.3945ZM690.656 20.8047L691.447 20.1922C682.81 9.04417 669.293 4.17969 655.305 4.17969V5.17969V6.17969C668.856 6.17969 681.706 10.8855 689.866 21.4171L690.656 20.8047ZM655.305 5.17969V4.17969C641.864 4.17969 630.752 11.1737 623.046 23.5979C615.36 35.9905 611.043 53.7958 611.043 75.5898H612.043H613.043C613.043 54.0245 617.32 36.6248 624.746 24.6521C632.152 12.7111 642.671 6.17969 655.305 6.17969V5.17969ZM612.043 75.5898H611.043C611.043 98.0348 615.928 115.563 624.159 127.512C632.409 139.488 644.008 145.828 657.258 145.828V144.828V143.828C644.726 143.828 633.718 137.863 625.806 126.378C617.875 114.864 613.043 97.7738 613.043 75.5898H612.043ZM657.258 144.828V145.828C669.433 145.828 684.475 141.384 692.259 130.164L691.438 129.594L690.616 129.024C683.361 139.483 669.106 143.828 657.258 143.828V144.828ZM691.438 129.594L692.237 130.194C698.278 122.14 699.66 114.261 701.707 98.0786L700.715 97.9531L699.723 97.8276C697.668 114.067 696.316 121.422 690.638 128.994L691.438 129.594ZM700.715 97.9531V98.9531H705.305V97.9531V96.9531H700.715V97.9531ZM705.305 97.9531H704.305C704.305 122.17 704.5 135.869 705.088 146.058L706.086 146L707.084 145.942C706.5 135.819 706.305 122.174 706.305 97.9531H705.305ZM706.086 146V145H701.496V146V147H706.086V146ZM701.496 146L702.493 145.917C702.15 141.804 701.629 138.719 700.787 136.64C700.363 135.593 699.829 134.729 699.131 134.122C698.409 133.494 697.558 133.184 696.613 133.184V134.184V135.184C697.084 135.184 697.467 135.325 697.819 135.631C698.194 135.958 698.576 136.509 698.934 137.391C699.654 139.169 700.159 141.993 700.5 146.083L701.496 146ZM696.613 134.184V133.184C695.229 133.184 693.65 133.916 691.968 135.004L692.512 135.844L693.055 136.683C694.694 135.623 695.849 135.184 696.613 135.184V134.184ZM692.512 135.844L691.937 135.026C682.14 141.912 672.385 147.832 655.5 147.832V148.832V149.832C672.99 149.832 683.156 143.643 693.087 136.662L692.512 135.844ZM655.5 148.832V147.832C636.752 147.832 621.192 141.261 610.31 129.11C599.417 116.947 593.121 99.0918 593.121 76.3711H592.121H591.121C591.121 99.4512 597.52 117.826 608.82 130.444C620.13 143.073 636.26 149.832 655.5 149.832V148.832ZM592.121 76.3711H593.121C593.121 54.2007 599.655 35.7443 610.715 22.8473C621.765 9.96126 637.38 2.56641 655.695 2.56641V1.56641V0.566406C636.804 0.566406 620.632 8.21061 609.196 21.5453C597.771 34.869 591.121 53.815 591.121 76.3711H592.121ZM831.379 146L831.336 146.999L832.484 147.049L832.374 145.904L831.379 146ZM727.57 146H726.57V147.03L727.6 147L727.57 146ZM727.57 141.996L727.527 140.997L726.57 141.038V141.996H727.57ZM727.57 8.40234H726.57V9.36011L727.527 9.40141L727.57 8.40234ZM727.57 4.39844L727.6 3.39888L726.57 3.36814V4.39844H727.57ZM827.375 4.39844L828.37 4.50204L828.49 3.34464L827.328 3.39955L827.375 4.39844ZM826.594 40.4336V41.4336H827.731L827.586 40.3056L826.594 40.4336ZM822.004 40.4336L821.01 40.5445L821.109 41.4336H822.004V40.4336ZM762.336 72.7578H761.336V73.7578H762.336V72.7578ZM794.172 46.3906V45.3906H793.322L793.185 46.2295L794.172 46.3906ZM798.762 46.3906L799.759 46.4594L799.833 45.3906H798.762V46.3906ZM799.348 103.227V104.227H800.414L800.346 103.163L799.348 103.227ZM794.758 103.227L793.765 103.348L793.873 104.227H794.758V103.227ZM762.336 76.7617V75.7617H761.336V76.7617H762.336ZM826.008 105.961V104.961H825.109L825.013 105.855L826.008 105.961ZM830.598 105.961L831.592 106.068L831.712 104.961H830.598V105.961ZM830.012 120.414H829.012C829.012 125.428 829.404 135.909 830.383 146.096L831.379 146L832.374 145.904C831.401 135.779 831.012 125.361 831.012 120.414H830.012ZM831.379 146L831.422 145.001C817.822 144.414 798.95 144.414 785.578 144.414V145.414V146.414C798.964 146.414 817.788 146.414 831.336 146.999L831.379 146ZM785.578 145.414V144.414C773.57 144.414 747.187 144.414 727.54 145L727.57 146L727.6 147C747.211 146.414 773.563 146.414 785.578 146.414V145.414ZM727.57 146H728.57V141.996H727.57H726.57V146H727.57ZM727.57 141.996L727.613 142.995C731.015 142.848 733.804 142.608 736.057 142.084C738.321 141.556 740.123 140.725 741.48 139.339C742.839 137.953 743.655 136.111 744.137 133.751C744.617 131.401 744.781 128.462 744.781 124.809H743.781H742.781C742.781 128.43 742.616 131.205 742.177 133.35C741.741 135.485 741.05 136.921 740.052 137.939C739.053 138.958 737.651 139.659 735.603 140.136C733.543 140.615 730.912 140.851 727.527 140.997L727.57 141.996ZM743.781 124.809H744.781V25.5898H743.781H742.781V124.809H743.781ZM743.781 25.5898H744.781C744.781 21.9361 744.617 18.9975 744.137 16.6479C743.655 14.2872 742.839 12.4457 741.48 11.0595C740.123 9.67374 738.321 8.84204 736.057 8.31493C733.804 7.79048 731.015 7.55012 727.613 7.40327L727.57 8.40234L727.527 9.40141C730.912 9.54753 733.543 9.78325 735.603 10.2628C737.651 10.7397 739.053 11.44 740.052 12.4591C741.05 13.4777 741.741 14.9137 742.177 17.0483C742.616 19.1939 742.781 21.9682 742.781 25.5898H743.781ZM727.57 8.40234H728.57V4.39844H727.57H726.57V8.40234H727.57ZM727.57 4.39844L727.54 5.39799C747.187 5.98446 773.57 5.98438 785.578 5.98438V4.98438V3.98438C773.563 3.98438 747.211 3.98429 727.6 3.39888L727.57 4.39844ZM785.578 4.98438V5.98438C797.777 5.98438 814.991 5.98461 827.422 5.39732L827.375 4.39844L827.328 3.39955C814.954 3.98414 797.793 3.98438 785.578 3.98438V4.98438ZM827.375 4.39844L826.38 4.29483C825.4 13.7031 825.008 23.4057 825.008 28.0312H826.008H827.008C827.008 23.4771 827.397 13.8438 828.37 4.50204L827.375 4.39844ZM826.008 28.0312H825.008C825.008 32.8314 825.203 37.4711 825.602 40.5616L826.594 40.4336L827.586 40.3056C827.203 37.3414 827.008 32.8014 827.008 28.0312H826.008ZM826.594 40.4336V39.4336H822.004V40.4336V41.4336H826.594V40.4336ZM822.004 40.4336L822.998 40.3227C822.338 34.4099 821.649 29.4362 820.647 25.314C819.645 21.1918 818.315 17.8506 816.33 15.2429C812.298 9.94681 805.823 7.98828 795.148 7.98828V8.98828V9.98828C805.666 9.98828 811.299 11.936 814.738 16.4543C816.489 18.7539 817.734 21.797 818.704 25.7863C819.673 29.7757 820.351 34.6409 821.01 40.5445L822.004 40.4336ZM795.148 8.98828V7.98828H778.547V8.98828V9.98828H795.148V8.98828ZM778.547 8.98828V7.98828C775.144 7.98828 772.353 8.11536 770.096 8.55449C767.829 8.99583 766.016 9.76806 764.648 11.1217C763.28 12.475 762.463 14.3053 761.98 16.6562C761.5 18.9973 761.336 21.9364 761.336 25.5898H762.336H763.336C763.336 21.9679 763.501 19.1941 763.94 17.0582C764.376 14.9323 765.066 13.5216 766.054 12.5433C767.043 11.5654 768.434 10.9155 770.478 10.5177C772.534 10.1175 775.163 9.98828 778.547 9.98828V8.98828ZM762.336 25.5898H761.336V72.7578H762.336H763.336V25.5898H762.336ZM762.336 72.7578V73.7578H775.617V72.7578V71.7578H762.336V72.7578ZM775.617 72.7578V73.7578C780.13 73.7578 783.577 72.6648 786.208 70.7996C788.834 68.9385 790.564 66.3676 791.749 63.551C792.931 60.742 793.587 57.6515 794.046 54.7018C794.276 53.2246 794.459 51.7689 794.631 50.396C794.804 49.0166 794.967 47.7265 795.159 46.5518L794.172 46.3906L793.185 46.2295C792.986 47.4474 792.819 48.7756 792.647 50.1466C792.474 51.5241 792.295 52.9508 792.07 54.3941C791.62 57.2855 790.994 60.1887 789.905 62.7752C788.82 65.3541 787.291 67.5806 785.052 69.168C782.818 70.7512 779.796 71.7578 775.617 71.7578V72.7578ZM794.172 46.3906V47.3906H798.762V46.3906V45.3906H794.172V46.3906ZM798.762 46.3906L797.764 46.3218C797.176 54.8443 797.078 60.6292 797.078 65.2383H798.078H799.078C799.078 60.6677 799.175 54.9292 799.759 46.4594L798.762 46.3906ZM798.078 65.2383H797.078C797.078 67.1022 797.103 68.7692 797.127 70.332C797.152 71.897 797.176 73.3532 797.176 74.8086H798.176H799.176C799.176 73.3343 799.151 71.8608 799.127 70.3008C799.102 68.7386 799.078 67.0853 799.078 65.2383H798.078ZM798.176 74.8086H797.176C797.176 81.3812 797.372 88.0452 798.35 103.291L799.348 103.227L800.346 103.163C799.37 87.9392 799.176 81.3219 799.176 74.8086H798.176ZM799.348 103.227V102.227H794.758V103.227V104.227H799.348V103.227ZM794.758 103.227L795.75 103.105C795.365 99.946 795.053 96.6394 794.539 93.5312C794.023 90.4125 793.29 87.3964 792.021 84.7628C790.745 82.1141 788.921 79.8398 786.233 78.2387C783.553 76.642 780.092 75.7617 775.617 75.7617V76.7617V77.7617C779.833 77.7617 782.916 78.5904 785.21 79.957C787.496 81.3191 789.078 83.2623 790.219 85.6308C791.367 88.0142 792.062 90.8148 792.566 93.8576C793.071 96.9109 793.37 100.111 793.765 103.348L794.758 103.227ZM775.617 76.7617V75.7617H762.336V76.7617V77.7617H775.617V76.7617ZM762.336 76.7617H761.336V124.809H762.336H763.336V76.7617H762.336ZM762.336 124.809H761.336C761.336 128.462 761.5 131.401 761.98 133.742C762.463 136.093 763.28 137.923 764.648 139.277C766.016 140.63 767.829 141.403 770.096 141.844C772.353 142.283 775.144 142.41 778.547 142.41V141.41V140.41C775.163 140.41 772.534 140.281 770.478 139.881C768.434 139.483 767.043 138.833 766.054 137.855C765.066 136.877 764.376 135.466 763.94 133.34C763.501 131.204 763.336 128.431 763.336 124.809H762.336ZM778.547 141.41V142.41H793.195V141.41V140.41H778.547V141.41ZM793.195 141.41V142.41C805.77 142.41 813.656 140.161 818.676 134.258C823.627 128.438 825.59 119.268 827.002 106.067L826.008 105.961L825.013 105.855C823.594 119.119 821.651 127.674 817.153 132.962C812.725 138.168 805.621 140.41 793.195 140.41V141.41ZM826.008 105.961V106.961H830.598V105.961V104.961H826.008V105.961ZM830.598 105.961L829.603 105.853C829.207 109.519 829.012 114.833 829.012 120.414H830.012H831.012C831.012 114.862 831.207 109.63 831.592 106.068L830.598 105.961Z" fill="#B9E5DD" mask="url(#path-1-outside-1_717_850)"/>
</svg>
