<?xml version="1.0" encoding="UTF-8"?>
<svg xmlns="http://www.w3.org/2000/svg" version="1.1" viewBox="0 0 24 24">
  <defs>
    <style>
      .cls-1 {
        fill: #70a9ca;
      }
    </style>
  </defs>
  <!-- Generator: Adobe Illustrator 28.7.8, SVG Export Plug-In . SVG Version: 1.2.0 Build 200)  -->
  <g>
    <g id="_圖層_1" data-name="圖層_1">
      <g id="Layer_1">
        <path class="cls-1" d="M12,0C7,0,3,4,3,9v7c0,2.8,2.2,5,5,5h3v2c0,.6.4,1,1,1s1-.4,1-1v-2h3c2.8,0,5-2.2,5-5v-7C21,4,17,0,12,0ZM12,19c-.6,0-1-.4-1-1v-9c0-.6.4-1,1-1s1,.4,1,1v9c0,.6-.4,1-1,1h0Z"/>
      </g>
    </g>
  </g>
</svg>