<?xml version="1.0" encoding="UTF-8"?>
<svg xmlns="http://www.w3.org/2000/svg" version="1.1" viewBox="0 0 43.4 41.3">
  <defs>
    <style>
      .cls-1 {
        fill: #fff;
      }
    </style>
  </defs>
  <!-- Generator: Adobe Illustrator 28.7.8, SVG Export Plug-In . SVG Version: 1.2.0 Build 200)  -->
  <g>
    <g id="navbar">
      <path class="cls-1" d="M38.5,6.6C33.9,2,28.1.2,21.7,0,15.6.2,10.1,1.8,5.5,6c-7.3,6.6-7.3,16.7,0,23.3,3.3,3,7.2,4.8,11.5,5.5,2.5.4,3.8,1.3,3,4.1-.2.7-.6,1.6.1,2.2.7.5,1.5,0,2.2-.3,6.4-3.6,12.6-7.7,17.4-13.4,5.4-6.5,4.9-14.7-1.1-20.7ZM13.3,23.5h-6.5v-10.4h2.5v8.3h4v2.1h0ZM17.6,23.5h-2.5v-10.4h2.5v10.4ZM28.2,23.5h-2.5l-2.6-5-1-2.3h0c.1,1.1.3,2.6.3,3.8v3.4h-2.4v-10.4h2.5l2.6,5,1,2.3h0c-.1-1.1-.3-2.6-.3-3.8v-3.4h2.4s0,10.4,0,10.4ZM37.3,23.5h-6.7v-10.4h6.6v2.1h-4.1v1.9h3.5v2.1h-3.5v2.2h4.2v2.1h0Z"/>
    </g>
  </g>
</svg>