<svg width="202" height="44" viewBox="0 0 202 44" fill="none" xmlns="http://www.w3.org/2000/svg">
<path d="M75.976 10.6V10.92H65.896V21.16H75.24V21.48H65.896V33H63.24V10.6H75.976ZM82.1253 33C80.2479 33 79.0639 32.5093 78.5733 31.528C78.4666 31.3147 78.4133 31.1227 78.4133 30.952V9.032H80.6533V30.728C80.6533 31.3467 80.7706 31.8267 81.0052 32.168C81.2613 32.488 81.5173 32.6587 81.7733 32.68L82.1253 32.744H83.1173V33H82.1253ZM87.77 29.32C87.77 31.0053 88.218 32.0827 89.114 32.552C89.5407 32.7653 90.0847 32.872 90.746 32.872C92.09 32.872 93.2847 32.36 94.33 31.336C95.3967 30.312 95.9727 29.3627 96.058 28.488V17H98.298V30.728C98.298 31.3467 98.4153 31.8267 98.65 32.168C98.906 32.488 99.162 32.6587 99.418 32.68L99.77 32.744H100.762V33H98.81C97.9353 33 97.2633 32.808 96.794 32.424C96.346 32.04 96.1113 31.656 96.09 31.272L96.058 30.728V29.352C95.674 30.2693 94.9913 31.1333 94.01 31.944C93.0287 32.7333 91.9513 33.128 90.778 33.128C89.626 33.128 88.6767 33.0213 87.93 32.808C87.2047 32.5733 86.682 32.2533 86.362 31.848C85.8073 31.1867 85.53 30.3333 85.53 29.288V17H87.77V29.32ZM108.486 18.376V17.704C107.526 18.088 106.651 18.8667 105.862 20.04C105.072 21.192 104.656 22.28 104.614 23.304V33H102.374V17H104.614V22.088C104.955 20.8507 105.606 19.688 106.566 18.6C107.526 17.4907 108.614 16.9147 109.83 16.872H109.958C110.384 16.872 110.736 17.0213 111.014 17.32C111.312 17.5973 111.462 17.9493 111.462 18.376C111.462 18.8027 111.312 19.1547 111.014 19.432C110.736 19.7093 110.384 19.848 109.958 19.848C109.531 19.848 109.179 19.7093 108.902 19.432C108.624 19.1547 108.486 18.8027 108.486 18.376ZM119.986 18.376V17.704C119.026 18.088 118.151 18.8667 117.362 20.04C116.572 21.192 116.156 22.28 116.114 23.304V33H113.874V17H116.114V22.088C116.455 20.8507 117.106 19.688 118.066 18.6C119.026 17.4907 120.114 16.9147 121.33 16.872H121.458C121.884 16.872 122.236 17.0213 122.514 17.32C122.812 17.5973 122.962 17.9493 122.962 18.376C122.962 18.8027 122.812 19.1547 122.514 19.432C122.236 19.7093 121.884 19.848 121.458 19.848C121.031 19.848 120.679 19.7093 120.402 19.432C120.124 19.1547 119.986 18.8027 119.986 18.376ZM129.31 38.728C128.627 40.2427 127.784 41 126.782 41C126.334 41 125.811 40.9253 125.214 40.776V40.52C125.704 40.648 126.142 40.712 126.526 40.712C127.614 40.712 128.446 40.0507 129.022 38.728L131.71 33H131.678L125.726 17H127.966L132.926 30.344L137.822 20.2C138.078 19.752 138.206 19.2187 138.206 18.6C138.206 17.9813 138.035 17.512 137.694 17.192L137.886 17C137.971 17.0427 138.078 17.1707 138.206 17.384C138.355 17.5973 138.44 17.7893 138.462 17.96C138.504 18.1307 138.526 18.2907 138.526 18.44C138.526 19.016 138.398 19.6027 138.142 20.2L131.998 33L129.31 38.728ZM151.459 10.856C153.933 10.6853 156.109 10.6 157.987 10.6C163.277 10.6 165.923 12.4667 165.923 16.2C165.923 17.928 165.475 19.4427 164.579 20.744C164.109 21.448 163.384 22.0133 162.403 22.44C161.421 22.8453 160.237 23.048 158.851 23.048H154.115V33H151.459V10.856ZM158.019 10.92C156.781 10.92 155.48 10.9947 154.115 11.144V22.728H158.851C161.859 22.6 163.363 20.4453 163.363 16.264C163.363 14.5573 162.915 13.2453 162.019 12.328C161.123 11.3893 159.789 10.92 158.019 10.92ZM175.77 33.128C173.53 33.128 171.706 32.488 170.298 31.208C168.89 29.928 168.186 27.9547 168.186 25.288C168.186 22.6213 168.912 20.552 170.362 19.08C171.834 17.608 173.69 16.872 175.93 16.872C178.192 16.872 180.026 17.512 181.434 18.792C182.842 20.072 183.546 22.0453 183.546 24.712C183.546 27.3787 182.81 29.448 181.338 30.92C179.888 32.392 178.032 33.128 175.77 33.128ZM175.994 17.128C174.373 17.128 173.029 17.8533 171.962 19.304C170.896 20.7333 170.362 22.7387 170.362 25.32C170.362 27.88 170.853 29.7787 171.834 31.016C172.816 32.2533 174.117 32.872 175.738 32.872C177.36 32.872 178.704 32.1573 179.77 30.728C180.837 29.2773 181.37 27.272 181.37 24.712C181.37 22.1307 180.88 20.2213 179.898 18.984C178.917 17.7467 177.616 17.128 175.994 17.128ZM185.788 17H188.028V20.968C188.39 19.9867 189.062 19.0587 190.044 18.184C191.025 17.3093 192.134 16.872 193.372 16.872C197.702 16.872 199.868 19.4107 199.868 24.488C199.868 30.248 197.073 33.128 191.484 33.128C190.481 33.128 189.329 32.8933 188.028 32.424V41H185.788V17ZM193.34 17.128C192.017 17.128 190.822 17.704 189.756 18.856C188.689 19.9867 188.113 21.0107 188.028 21.928V32.136C189.329 32.6267 190.47 32.872 191.452 32.872C195.569 32.872 197.628 30.0667 197.628 24.456C197.628 19.5707 196.198 17.128 193.34 17.128Z" fill="white"/>
<path d="M30.2082 36.6446C28.1927 36.7629 28.2312 36.7701 28.6416 34.7231C28.8388 33.743 29.1721 33.0575 30.0359 32.4757C32.065 31.1046 31.8837 28.1982 29.7162 26.7064C29.1336 26.3033 28.8615 25.8422 28.7096 25.1711C28.0045 22.0499 26.6238 19.3873 24.0007 17.63C21.9512 16.2565 19.6568 15.6433 17.2899 15.2957C16.5349 15.1847 15.7731 15.134 15.0159 15.0567C14.5466 15.0085 14.3335 14.9312 14.5897 14.2963C15.6552 11.6531 17.4191 9.65916 19.6432 8.13355C20.5047 7.54214 20.9355 6.83486 21.1055 5.78479C21.3866 4.03951 21.7857 2.31596 22.1099 0.577927C22.2278 -0.047283 22.3797 -0.201775 22.8784 0.295496C24.2183 1.63282 25.6104 2.91462 26.9458 4.25677C27.474 4.78784 28.0159 5.0244 28.7572 4.98336C32.8585 4.75887 36.5722 5.9417 39.8686 8.56565C45.3234 12.9059 47.5067 20.4567 45.1715 27.2737C43.8747 31.0563 41.2199 33.5065 37.81 35.0731C35.3887 36.1859 32.8336 36.6108 30.2127 36.6397L30.2082 36.6446ZM33.9266 11.8217C33.9629 12.6086 34.6861 11.5728 35.1101 12.2439C36.2936 12.2439 35.33 12.312 35.8991 11.3995C36.6404 10.2094 36.6427 10.481 35.8991 9.28848C35.3323 8.37601 34.5093 8.79339 33.9266 9.71069C33.5004 10.3818 33.5684 10.1928 33.5321 10.9773L33.9266 11.8217ZM28.0092 10.9773C27.9933 11.8729 28.2108 11.5463 28.7572 12.2439C29.2605 12.886 30.2536 12.4204 30.7977 11.8217C31.1651 10.5551 31.7748 10.4327 30.7977 9.28848C30.2173 8.60775 28.9319 8.54499 28.4037 9.28848C27.9094 9.9837 27.9888 10.1155 28.0092 10.9773Z" fill="white"/>
<path d="M15.0709 31.6187C10.9996 31.6187 6.92595 31.6115 2.85459 31.6235C1.93082 31.6259 1.13323 31.327 0.527142 30.5952C-0.126258 29.8036 -0.160054 28.8375 0.358159 27.9455C0.898903 27.0129 2.31385 26.3816 3.2962 26.6901C3.77611 26.8407 4.22448 27.1038 4.68862 27.3118C5.9098 27.8618 7.18055 27.9503 8.35441 27.3118C10.042 26.3983 11.6552 26.3768 13.3428 27.2544C14.6586 27.9384 15.9902 27.8714 17.306 27.1683C18.748 26.3983 20.226 26.3481 21.6747 27.1277C23.2609 27.979 24.7885 27.8379 26.3454 27.0272C27.7514 26.2931 29.1595 26.7666 29.8715 28.1297C30.7097 29.7343 29.5065 31.5613 27.5396 31.6067C25.8002 31.645 24.0585 31.6163 22.3169 31.6163C19.9016 31.6163 17.4862 31.6163 15.0709 31.6163V31.6187Z" fill="#F7E7A1"/>
<path d="M20.0919 43.3209C18.5806 43.3209 17.1529 43.311 15.723 43.3284C15.3457 43.3334 15.2621 43.1047 15.183 42.7767C14.4782 39.7844 13.7666 36.7946 13.0438 33.8074C12.9376 33.365 13.0189 33.1985 13.4594 33.2084C14.7245 33.2308 15.9895 33.2233 17.2546 33.2134C17.5437 33.2134 17.7109 33.2929 17.7922 33.6359C18.5422 36.8344 19.308 40.028 20.0942 43.3234L20.0919 43.3209Z" fill="#EEFFFB"/>
<path d="M5.51775 33.2264C6.8351 33.2264 7.65769 33.9208 7.98553 35.3096C8.55364 37.7326 9.10154 40.1605 9.68761 42.5761C9.82458 43.1366 9.77967 43.3697 9.19136 43.3226C8.49526 43.268 7.79018 43.335 7.09632 43.268C5.94214 43.1589 5.24155 42.4868 4.99455 41.2468C4.50728 38.8089 4.05818 36.3611 3.58214 33.9208C3.48559 33.4248 3.56193 33.1644 4.09411 33.214C4.56566 33.2586 5.04395 33.2239 5.51999 33.2239L5.51775 33.2264Z" fill="#EEFFFB"/>
<path d="M25.134 41.1122C24.4496 38.5177 23.7629 35.9207 23.0493 33.2155C24.2378 33.2155 25.3483 33.2323 26.4588 33.2082C26.9508 33.1986 26.9191 33.485 26.8558 33.7883C26.3541 36.2312 25.8475 38.6717 25.341 41.1146H25.1364L25.134 41.1122Z" fill="#EEFFFB"/>
<path d="M37.8083 0.632324C38.1219 2.61467 38.4046 4.38718 38.7115 6.32509C37.1745 5.37959 35.6861 4.71057 33.9834 4.22671C35.2731 3.01459 36.4767 1.88394 37.8083 0.632324Z" fill="white"/>
<path d="M14.7334 42.7223C14.3366 41.1134 13.953 39.497 13.5651 37.8857C13.339 36.891 13.1129 35.8963 12.8845 34.9041C12.807 34.5286 12.7072 34.1556 12.6562 33.7752C12.5875 33.2704 12.337 33.1311 11.9269 33.2455C11.5944 33.2455 11.2641 33.2455 10.9315 33.2455C10.7098 33.2455 10.4882 33.2455 10.2687 33.2455C9.99382 33.2455 9.71672 33.2455 9.44183 33.2455C9.19355 33.2356 8.94748 33.2331 8.6992 33.2181C8.30683 33.1958 8.21594 33.427 8.30683 33.8C8.61275 35.0459 8.9231 36.2892 9.23124 37.535C9.43518 38.8008 9.71007 40.0466 10.0958 41.2576C10.0825 41.8594 10.3463 42.3916 10.435 42.9685C10.486 43.3017 10.6899 43.3266 10.9315 43.2793C11.2641 43.2793 11.5944 43.2793 11.9269 43.2793C12.1486 43.2793 12.3702 43.2793 12.5897 43.2793C12.8114 43.2793 13.0331 43.2793 13.2525 43.2793C13.6117 43.2917 13.9708 43.2818 14.3277 43.3216C14.7777 43.3713 14.8353 43.15 14.7311 42.7248L14.7334 42.7223Z" fill="#FED85E"/>
<path d="M24.712 41.2909C24.3314 39.8079 23.9394 38.3297 23.5521 36.8492C23.5407 36.0221 23.0849 35.3131 23.0029 34.5029C22.7841 33.9893 23.0917 33.0127 22.0207 33.2466C21.7359 33.2466 21.4533 33.2466 21.1685 33.2466C20.8836 33.2466 20.601 33.2466 20.3162 33.2466C20.0314 33.2466 18.9558 33.2273 18.7006 33.2104C18.3587 33.1887 18.2562 33.3093 18.361 33.6855C18.6869 34.8574 18.9808 36.0414 19.2862 37.2205C19.4708 38.3948 19.7625 39.5378 20.1316 40.6615C20.2706 41.315 20.4096 41.9661 20.5486 42.6195C20.6284 42.9885 20.8517 43.0729 21.1685 42.974C21.4533 42.974 21.7359 42.974 22.0207 42.974H22.7021C23.0712 43.0078 23.4427 43.056 23.7799 42.8245C24.8259 42.5183 24.9695 42.2964 24.712 41.2885V41.2909Z" fill="#FED85E"/>
<path d="M27.1221 25.1631C26.8587 24.0061 26.4939 22.9195 25.8635 21.9421C25.7711 21.4691 25.4356 21.1829 25.1564 20.853C24.9583 20.3607 24.5913 20.0405 24.1837 19.7664C23.9923 19.2619 23.5195 19.1334 23.1502 18.8641C22.898 18.396 22.3689 18.3863 22.0221 18.0783C21.8352 17.9788 21.6483 17.8794 21.4614 17.78C21.1777 17.3701 20.6801 17.4671 20.3243 17.2221C19.9888 17.096 19.6511 16.9699 19.3156 16.8437C19.0679 16.6376 18.7684 16.6691 18.4847 16.6327C18.2303 16.4338 17.9285 16.4848 17.6426 16.4508C17.3206 16.2398 16.9648 16.3004 16.6181 16.3028C16.582 16.2665 16.5438 16.264 16.501 16.2931C16.3028 16.298 16.3028 16.298 16.501 16.2931C15.9336 16.036 15.3414 16.1573 14.7559 16.1622C14.1367 16.1452 13.513 16.0821 12.9096 16.3028C12.6821 16.3174 12.457 16.3344 12.2296 16.3489C11.8941 16.4096 11.5608 16.4726 11.2253 16.5333C10.874 16.5915 10.5183 16.6279 10.203 16.8267C9.90583 16.8316 9.62662 16.9044 9.37218 17.0717C9.05694 17.096 8.78899 17.2561 8.52555 17.4258C8.13601 17.4841 7.82753 17.7242 7.51905 17.957C7.14302 18.1219 6.77374 18.3014 6.49454 18.6337C6.09149 18.8059 5.79426 19.1261 5.49929 19.4511C5.103 19.6864 4.89359 20.1011 4.65492 20.4892C3.99743 21.2096 3.56736 22.0682 3.30616 23.0311C2.99093 23.5744 2.87609 24.1856 2.76801 24.8017C2.56086 25.9635 2.55635 25.9635 3.62365 26.1818C4.06272 26.4437 4.4973 26.7227 4.99492 26.8439C5.17956 27.0598 5.42724 27.0355 5.66592 27.0355C6.12751 27.2563 6.59136 27.249 7.05295 27.038C7.28938 27.038 7.53031 27.0695 7.7172 26.8609C8.01217 26.7881 8.29588 26.6911 8.53455 26.4777L9.37668 26.1139C9.67615 26.1697 9.94185 26.0193 10.2188 25.9441C10.5566 25.9441 10.8921 25.9441 11.2298 25.9441C11.4572 25.9902 11.6846 26.0387 11.9121 26.0848C12.2476 26.2157 12.5808 26.3467 12.9163 26.4777C13.2901 26.6984 13.6459 26.9652 14.0917 26.9967C14.6569 27.1908 15.2243 27.2878 15.7985 27.0307C16.1745 27.0477 16.4987 26.8997 16.7915 26.6596C17.19 26.4801 17.5863 26.3006 17.9848 26.1211C18.1492 26.0896 18.3136 26.0581 18.4757 26.0241C18.7572 25.9926 19.0386 25.9586 19.3201 25.9271C19.7119 25.978 20.1037 26.029 20.4932 26.0799C20.831 26.206 21.1687 26.3346 21.5087 26.4607C21.6753 26.5359 21.8397 26.6111 22.0063 26.6863C22.2991 26.9579 22.6413 27.0598 23.0218 27.0404C23.4834 27.232 23.945 27.2296 24.4066 27.0355C24.643 27.0404 24.8795 27.0525 25.0641 26.8488C25.3321 26.81 25.5662 26.6911 25.7711 26.5019C26.0076 26.4122 26.2395 26.2788 26.4827 26.2448C27.1176 26.1527 27.2933 25.8737 27.1289 25.1582L27.1221 25.1631Z" fill="#B9E5DD"/>
</svg>
