<?xml version="1.0" encoding="UTF-8"?>
<svg xmlns="http://www.w3.org/2000/svg" version="1.1" viewBox="0 0 24 24">
  <defs>
    <style>
      .cls-1 {
        fill: #70a9ca;
      }
    </style>
  </defs>
  <!-- Generator: Adobe Illustrator 28.7.8, SVG Export Plug-In . SVG Version: 1.2.0 Build 200)  -->
  <g>
    <g id="_圖層_1" data-name="圖層_1">
      <g id="Layer_1">
        <path class="cls-1" d="M14,17H4v-3h10v3ZM19.1,9.2l-1.6-4.2c-.3-.8-.5-1.7-.5-2.5v-.5c.6,0,1-.4,1-1s-.4-1-1-1H7c-.6,0-1,.4-1,1s.4,1,1,1v.5c0,.9-.2,1.7-.5,2.5l-1.6,4.2c-.4.9-.6,1.8-.7,2.8h9.8c1.1,0,2,.9,2,2v3c0,1.1-.9,2-2,2H4c0,2.8,2.2,5,5,5h6c2.8,0,5-2.2,5-5v-5.1c0-1.6-.3-3.2-.9-4.7h0Z"/>
      </g>
    </g>
  </g>
</svg>