<svg width="294" height="54" viewBox="0 0 294 54" fill="none" xmlns="http://www.w3.org/2000/svg">
<g opacity="0.22" filter="url(#filter0_f_520_732)">
<path d="M29.976 15.24C30.936 17.576 32.136 19.784 33.576 21.864C35.016 23.912 36.616 25.816 38.376 27.576C40.136 29.304 41.976 30.84 43.896 32.184C45.816 33.496 47.752 34.6 49.704 35.496L49.56 35.976C48.44 36.2 47.416 36.76 46.488 37.656C45.592 38.52 44.904 39.64 44.424 41.016C41.992 39.256 39.816 37.128 37.896 34.632C36.008 32.136 34.344 29.288 32.904 26.088C31.496 22.888 30.328 19.352 29.4 15.48L29.976 15.24ZM27.864 16.008C26.04 21.544 23.192 26.568 19.32 31.08C15.448 35.56 10.584 39.288 4.728 42.264L4.248 41.784C7 39.608 9.464 37.064 11.64 34.152C13.848 31.24 15.736 28.152 17.304 24.888C18.872 21.624 20.072 18.408 20.904 15.24H27.864V16.008ZM31.752 4.968C31.72 5.352 31.56 5.672 31.272 5.928C31.016 6.184 30.504 6.376 29.736 6.504V47.496C29.736 47.688 29.512 47.912 29.064 48.168C28.616 48.424 28.024 48.648 27.288 48.84C26.584 49.064 25.832 49.176 25.032 49.176H23.928V4.152L31.752 4.968ZM34.056 32.52C34.056 32.52 34.232 32.68 34.584 33C34.936 33.288 35.384 33.688 35.928 34.2C36.472 34.68 37.032 35.208 37.608 35.784C38.216 36.328 38.76 36.856 39.24 37.368C39.112 37.88 38.68 38.136 37.944 38.136H15.048L14.664 36.744H31.08L34.056 32.52ZM42.264 10.68C42.264 10.68 42.472 10.856 42.888 11.208C43.304 11.56 43.816 11.992 44.424 12.504C45.064 13.016 45.72 13.576 46.392 14.184C47.064 14.76 47.688 15.304 48.264 15.816C48.136 16.328 47.688 16.584 46.92 16.584H6.552L6.12 15.24H38.952L42.264 10.68ZM75.912 17.304C79.976 17.496 83.336 17.928 85.992 18.6C88.648 19.272 90.712 20.056 92.184 20.952C93.656 21.816 94.648 22.712 95.16 23.64C95.704 24.536 95.864 25.352 95.64 26.088C95.448 26.792 95.016 27.288 94.344 27.576C93.704 27.864 92.92 27.832 91.992 27.48C91.128 26.648 89.896 25.672 88.296 24.552C86.696 23.432 84.824 22.296 82.68 21.144C80.536 19.96 78.216 18.888 75.72 17.928L75.912 17.304ZM79.416 27.192L82.584 24.264L87.672 28.872C87.48 29.064 87.24 29.192 86.952 29.256C86.664 29.32 86.264 29.384 85.752 29.448C84.792 29.768 83.688 30.136 82.44 30.552C81.224 30.968 79.96 31.384 78.648 31.8C77.336 32.184 76.104 32.52 74.952 32.808H74.328C74.968 32.264 75.64 31.656 76.344 30.984C77.08 30.28 77.768 29.592 78.408 28.92C79.08 28.216 79.608 27.64 79.992 27.192H79.416ZM83.208 27.192V28.584H61.896L61.464 27.192H83.208ZM91.08 9.384C90.824 9.608 90.424 9.72 89.88 9.72C89.368 9.688 88.744 9.496 88.008 9.144C86.056 9.368 83.88 9.576 81.48 9.768C79.112 9.928 76.6 10.056 73.944 10.152C71.32 10.248 68.68 10.312 66.024 10.344C63.368 10.376 60.792 10.36 58.296 10.296L58.2 9.528C60.568 9.272 63.048 8.952 65.64 8.568C68.232 8.152 70.792 7.688 73.32 7.176C75.88 6.664 78.264 6.152 80.472 5.64C82.68 5.128 84.568 4.632 86.136 4.152L91.08 9.384ZM75.432 16.008C73.192 18.952 70.12 21.48 66.216 23.592C62.312 25.672 57.96 27.336 53.16 28.584L52.824 28.008C55.064 26.952 57.16 25.752 59.112 24.408C61.096 23.032 62.872 21.56 64.44 19.992C66.04 18.392 67.352 16.808 68.376 15.24H75.432V16.008ZM79.416 32.232C79.384 32.552 79.24 32.808 78.984 33C78.728 33.192 78.328 33.32 77.784 33.384V42.696C77.784 43.976 77.624 45.064 77.304 45.96C76.984 46.856 76.296 47.576 75.24 48.12C74.216 48.664 72.648 49.032 70.536 49.224C70.44 48.36 70.312 47.608 70.152 46.968C69.992 46.36 69.704 45.832 69.288 45.384C68.904 45 68.376 44.648 67.704 44.328C67.064 44.008 66.12 43.752 64.872 43.56V42.936C64.872 42.936 65.144 42.952 65.688 42.984C66.264 43.016 66.936 43.064 67.704 43.128C68.504 43.16 69.24 43.192 69.912 43.224C70.616 43.256 71.096 43.272 71.352 43.272C71.704 43.272 71.944 43.224 72.072 43.128C72.232 43 72.312 42.792 72.312 42.504V31.608L79.416 32.232ZM91.512 31.704C91.512 31.704 91.688 31.864 92.04 32.184C92.424 32.472 92.888 32.856 93.432 33.336C94.008 33.816 94.6 34.328 95.208 34.872C95.848 35.384 96.408 35.88 96.888 36.36C96.792 36.872 96.36 37.128 95.592 37.128H53.496L53.064 35.736H88.488L91.512 31.704ZM90.504 11.016C90.504 11.016 90.68 11.16 91.032 11.448C91.384 11.704 91.848 12.056 92.424 12.504C93 12.92 93.592 13.384 94.2 13.896C94.808 14.376 95.384 14.84 95.928 15.288C95.8 15.8 95.352 16.056 94.584 16.056H54.36L53.976 14.664H87.528L90.504 11.016ZM77.688 25.224C77.688 25.352 77.272 25.576 76.44 25.896C75.64 26.216 74.536 26.376 73.128 26.376H72.12V9.048H77.688V25.224ZM123.864 7.128C124.12 11.736 124.632 15.912 125.4 19.656C126.2 23.368 127.416 26.68 129.048 29.592C130.68 32.504 132.856 35.048 135.576 37.224C138.296 39.4 141.704 41.256 145.8 42.792L145.752 43.368C144.28 43.624 143.096 44.232 142.2 45.192C141.304 46.152 140.68 47.416 140.328 48.984C136.744 47.096 133.848 44.792 131.64 42.072C129.432 39.352 127.72 36.248 126.504 32.76C125.32 29.24 124.472 25.352 123.96 21.096C123.48 16.808 123.176 12.168 123.048 7.176L123.864 7.128ZM123.864 7.128C123.8 9.624 123.688 12.152 123.528 14.712C123.4 17.272 123.128 19.816 122.712 22.344C122.328 24.872 121.656 27.368 120.696 29.832C119.768 32.264 118.488 34.632 116.856 36.936C115.224 39.208 113.112 41.384 110.52 43.464C107.96 45.512 104.824 47.432 101.112 49.224L100.584 48.552C104.072 45.992 106.904 43.336 109.08 40.584C111.288 37.832 112.984 35 114.168 32.088C115.384 29.176 116.232 26.232 116.712 23.256C117.192 20.248 117.48 17.224 117.576 14.184C117.672 11.112 117.72 8.056 117.72 5.016L125.592 5.784C125.56 6.136 125.416 6.424 125.16 6.648C124.936 6.872 124.504 7.032 123.864 7.128ZM163.128 38.904C163 39.16 162.76 39.368 162.408 39.528C162.056 39.656 161.624 39.656 161.112 39.528C159.608 41.256 157.912 42.76 156.024 44.04C154.168 45.32 152.296 46.328 150.408 47.064L149.928 46.536C151.144 45.352 152.36 43.784 153.576 41.832C154.824 39.88 155.896 37.832 156.792 35.688L163.128 38.904ZM178.728 26.28C178.6 26.568 178.376 26.792 178.056 26.952C177.736 27.08 177.32 27.128 176.808 27.096C175.72 28.024 174.552 28.968 173.304 29.928C172.088 30.888 170.952 31.688 169.896 32.328L169.272 31.896C169.72 30.904 170.216 29.656 170.76 28.152C171.304 26.616 171.832 25.096 172.344 23.592L178.728 26.28ZM154.2 24.072C156.12 24.552 157.608 25.144 158.664 25.848C159.72 26.52 160.44 27.24 160.824 28.008C161.24 28.776 161.384 29.496 161.256 30.168C161.128 30.84 160.824 31.384 160.344 31.8C159.864 32.216 159.272 32.424 158.568 32.424C157.896 32.392 157.208 32.088 156.504 31.512C156.44 30.68 156.264 29.832 155.976 28.968C155.688 28.072 155.336 27.24 154.92 26.472C154.536 25.672 154.136 24.952 153.72 24.312L154.2 24.072ZM169.704 36.792C172.168 37.08 174.152 37.592 175.656 38.328C177.16 39.032 178.264 39.832 178.968 40.728C179.704 41.592 180.104 42.44 180.168 43.272C180.232 44.104 180.056 44.808 179.64 45.384C179.256 45.992 178.696 46.36 177.96 46.488C177.224 46.648 176.408 46.456 175.512 45.912C175.16 44.856 174.632 43.8 173.928 42.744C173.256 41.688 172.504 40.68 171.672 39.72C170.872 38.728 170.088 37.848 169.32 37.08L169.704 36.792ZM169.8 23.64C169.768 23.928 169.624 24.184 169.368 24.408C169.144 24.6 168.76 24.744 168.216 24.84V47.736C168.216 47.896 167.992 48.088 167.544 48.312C167.096 48.568 166.536 48.792 165.864 48.984C165.224 49.176 164.568 49.272 163.896 49.272H162.888V22.968L169.8 23.64ZM175.992 30.024C175.992 30.024 176.264 30.232 176.808 30.648C177.352 31.064 178.008 31.576 178.776 32.184C179.544 32.76 180.216 33.336 180.792 33.912C180.696 34.424 180.28 34.68 179.544 34.68H150.504L150.12 33.288H173.304L175.992 30.024ZM186.504 6.456C186.504 6.456 186.68 6.6 187.032 6.888C187.416 7.144 187.896 7.512 188.472 7.992C189.08 8.44 189.704 8.92 190.344 9.432C191.016 9.912 191.624 10.408 192.168 10.92C192.04 11.432 191.592 11.688 190.824 11.688H158.568L159.288 10.296H183.432L186.504 6.456ZM183.336 11.88C183.336 11.88 183.512 12.024 183.864 12.312C184.248 12.568 184.712 12.92 185.256 13.368C185.832 13.784 186.408 14.232 186.984 14.712C187.592 15.192 188.168 15.656 188.712 16.104C188.584 16.616 188.136 16.872 187.368 16.872H160.584L160.2 15.48H180.408L183.336 11.88ZM166.776 7.368C166.648 7.624 166.424 7.832 166.104 7.992C165.784 8.152 165.336 8.2 164.76 8.136C162.776 11.752 160.44 14.776 157.752 17.208C155.064 19.608 152.168 21.544 149.064 23.016L148.584 22.584C149.96 21.176 151.304 19.512 152.616 17.592C153.96 15.672 155.192 13.56 156.312 11.256C157.464 8.952 158.424 6.568 159.192 4.104L166.776 7.368ZM182.664 20.808V22.152H154.296L153.864 20.808H182.664ZM179.352 20.808L182.184 17.64L187.704 22.008C187.384 22.36 186.744 22.616 185.784 22.776C185.72 24.472 185.736 26.28 185.832 28.2C185.928 30.088 186.12 31.928 186.408 33.72C186.728 35.512 187.16 37.112 187.704 38.52C188.28 39.896 189 40.904 189.864 41.544C190.12 41.704 190.312 41.768 190.44 41.736C190.568 41.672 190.696 41.512 190.824 41.256C191.144 40.616 191.432 39.912 191.688 39.144C191.944 38.344 192.184 37.544 192.408 36.744L192.888 36.792L192.504 43.512C193.144 44.6 193.512 45.544 193.608 46.344C193.736 47.144 193.592 47.784 193.176 48.264C192.6 48.872 191.928 49.192 191.16 49.224C190.424 49.256 189.672 49.08 188.904 48.696C188.136 48.344 187.432 47.912 186.792 47.4C185.352 46.248 184.168 44.744 183.24 42.888C182.344 41 181.656 38.872 181.176 36.504C180.696 34.136 180.36 31.608 180.168 28.92C180.008 26.232 179.912 23.528 179.88 20.808H179.352ZM208.728 18.024H216.936V19.416H209.16L208.728 18.024ZM215.352 18.024H214.824L217.512 15.24L222.312 19.32C222.056 19.704 221.464 19.944 220.536 20.04C220.024 22.888 219.256 25.752 218.232 28.632C217.208 31.48 215.784 34.184 213.96 36.744C212.136 39.272 209.8 41.496 206.952 43.416L206.472 42.888C208.36 40.776 209.912 38.344 211.128 35.592C212.344 32.808 213.288 29.912 213.96 26.904C214.632 23.864 215.096 20.904 215.352 18.024ZM227.112 13.272C227.656 16.952 228.424 20.168 229.416 22.92C230.408 25.672 231.592 28.04 232.968 30.024C234.344 31.976 235.832 33.64 237.432 35.016C239.032 36.392 240.696 37.56 242.424 38.52L242.184 39.048C241 39.272 239.96 39.896 239.064 40.92C238.2 41.944 237.56 43.144 237.144 44.52C235.576 42.888 234.216 41.128 233.064 39.24C231.912 37.32 230.92 35.16 230.088 32.76C229.256 30.36 228.568 27.576 228.024 24.408C227.48 21.24 227.048 17.576 226.728 13.416L227.112 13.272ZM227.16 6.888V42.552C227.16 43.832 227 44.92 226.68 45.816C226.36 46.744 225.672 47.48 224.616 48.024C223.592 48.568 221.992 48.936 219.816 49.128C219.72 48.264 219.576 47.512 219.384 46.872C219.192 46.264 218.888 45.752 218.472 45.336C218.056 44.888 217.496 44.52 216.792 44.232C216.12 43.912 215.112 43.656 213.768 43.464V42.744C213.768 42.744 214.056 42.776 214.632 42.84C215.24 42.872 215.944 42.92 216.744 42.984C217.576 43.016 218.36 43.048 219.096 43.08C219.864 43.112 220.392 43.128 220.68 43.128C221.128 43.128 221.416 43.048 221.544 42.888C221.704 42.728 221.784 42.488 221.784 42.168V4.872L228.84 5.592C228.808 5.912 228.68 6.184 228.456 6.408C228.232 6.632 227.8 6.792 227.16 6.888ZM235.272 12.6L241.656 16.728C241.496 16.952 241.288 17.128 241.032 17.256C240.776 17.352 240.36 17.352 239.784 17.256C238.888 17.928 237.848 18.68 236.664 19.512C235.48 20.344 234.232 21.16 232.92 21.96C231.608 22.76 230.28 23.496 228.936 24.168L228.504 23.688C229.336 22.632 230.184 21.432 231.048 20.088C231.944 18.712 232.76 17.368 233.496 16.056C234.232 14.712 234.824 13.56 235.272 12.6ZM198.072 7.224C200.376 7.672 202.2 8.296 203.544 9.096C204.92 9.896 205.896 10.76 206.472 11.688C207.048 12.584 207.304 13.448 207.24 14.28C207.208 15.112 206.952 15.8 206.472 16.344C205.992 16.888 205.368 17.192 204.6 17.256C203.832 17.288 203.016 16.984 202.152 16.344C201.992 15.32 201.672 14.28 201.192 13.224C200.744 12.136 200.2 11.112 199.56 10.152C198.952 9.16 198.312 8.28 197.64 7.512L198.072 7.224ZM198.696 33.288C199.08 33.288 199.352 33.256 199.512 33.192C199.672 33.096 199.896 32.808 200.184 32.328C200.408 31.976 200.616 31.64 200.808 31.32C201 30.968 201.272 30.456 201.624 29.784C201.976 29.112 202.472 28.12 203.112 26.808C203.784 25.496 204.696 23.704 205.848 21.432C207 19.128 208.488 16.168 210.312 12.552L211.08 12.792C210.696 13.88 210.248 15.128 209.736 16.536C209.224 17.912 208.712 19.336 208.2 20.808C207.688 22.248 207.192 23.656 206.712 25.032C206.264 26.376 205.864 27.56 205.512 28.584C205.192 29.576 204.952 30.312 204.792 30.792C204.6 31.528 204.424 32.28 204.264 33.048C204.104 33.816 204.04 34.504 204.072 35.112C204.104 35.912 204.28 36.68 204.6 37.416C204.92 38.152 205.224 38.968 205.512 39.864C205.8 40.76 205.912 41.864 205.848 43.176C205.816 44.36 205.448 45.288 204.744 45.96C204.04 46.664 203.112 47.016 201.96 47.016C201.384 47.016 200.856 46.824 200.376 46.44C199.928 46.056 199.624 45.448 199.464 44.616C199.752 42.984 199.912 41.48 199.944 40.104C199.976 38.728 199.912 37.592 199.752 36.696C199.592 35.768 199.32 35.176 198.936 34.92C198.616 34.696 198.264 34.536 197.88 34.44C197.496 34.312 197.032 34.232 196.488 34.2V33.288C196.488 33.288 196.632 33.288 196.92 33.288C197.208 33.288 197.528 33.288 197.88 33.288C198.264 33.288 198.536 33.288 198.696 33.288ZM254.424 7.704V5.352L260.328 7.704H276.744V9.048H260.088V23.88C260.088 24.04 259.848 24.264 259.368 24.552C258.888 24.84 258.28 25.096 257.544 25.32C256.808 25.544 256.04 25.656 255.24 25.656H254.424V7.704ZM273.912 7.704H273.432L276.072 4.824L281.544 8.952C281.416 9.144 281.176 9.352 280.824 9.576C280.472 9.768 280.056 9.912 279.576 10.008V23.688C279.576 23.816 279.304 24.008 278.76 24.264C278.248 24.52 277.624 24.744 276.888 24.936C276.184 25.128 275.512 25.224 274.872 25.224H273.912V7.704ZM257.4 19.992H276.888V21.384H257.4V19.992ZM246.936 28.632V26.376L252.552 28.632H262.296V29.976H252.312V47.112C252.312 47.24 252.088 47.448 251.64 47.736C251.224 48.024 250.664 48.28 249.96 48.504C249.256 48.728 248.52 48.84 247.752 48.84H246.936V28.632ZM259.272 28.632H258.792L261.384 25.848L266.664 29.88C266.536 30.072 266.296 30.264 265.944 30.456C265.624 30.648 265.224 30.792 264.744 30.888V46.392C264.744 46.52 264.488 46.712 263.976 46.968C263.464 47.224 262.856 47.448 262.152 47.64C261.48 47.864 260.824 47.976 260.184 47.976H259.272V28.632ZM248.904 42.648H261.768V43.992H248.904V42.648ZM269.016 28.632V26.376L274.68 28.632H285.048V29.976H274.44V47.16C274.44 47.32 274.216 47.528 273.768 47.784C273.32 48.072 272.744 48.328 272.04 48.552C271.336 48.776 270.6 48.888 269.832 48.888H269.016V28.632ZM281.736 28.632H281.256L283.848 25.8L289.272 29.88C289.144 30.072 288.904 30.264 288.552 30.456C288.2 30.648 287.784 30.808 287.304 30.936V46.872C287.304 46.968 287.032 47.128 286.488 47.352C285.976 47.576 285.368 47.768 284.664 47.928C283.96 48.12 283.288 48.216 282.648 48.216H281.736V28.632ZM270.744 42.648H284.232V43.992H270.744V42.648Z" fill="#A4C4D7"/>
</g>
<defs>
<filter id="filter0_f_520_732" x="0.248047" y="0.104004" width="293.024" height="53.168" filterUnits="userSpaceOnUse" color-interpolation-filters="sRGB">
<feFlood flood-opacity="0" result="BackgroundImageFix"/>
<feBlend mode="normal" in="SourceGraphic" in2="BackgroundImageFix" result="shape"/>
<feGaussianBlur stdDeviation="2" result="effect1_foregroundBlur_520_732"/>
</filter>
</defs>
</svg>
