<svg width="105" height="404" viewBox="0 0 105 404" fill="none" xmlns="http://www.w3.org/2000/svg">
<g opacity="0.22" filter="url(#filter0_f_520_736)">
<path d="M79.976 52.24C80.936 54.576 82.136 56.784 83.576 58.864C85.016 60.912 86.616 62.816 88.376 64.576C90.136 66.304 91.976 67.84 93.896 69.184C95.816 70.496 97.752 71.6 99.704 72.496L99.56 72.976C98.44 73.2 97.416 73.76 96.488 74.656C95.592 75.52 94.904 76.64 94.424 78.016C91.992 76.256 89.816 74.128 87.896 71.632C86.008 69.136 84.344 66.288 82.904 63.088C81.496 59.888 80.328 56.352 79.4 52.48L79.976 52.24ZM77.864 53.008C76.04 58.544 73.192 63.568 69.32 68.08C65.448 72.56 60.584 76.288 54.728 79.264L54.248 78.784C57 76.608 59.464 74.064 61.64 71.152C63.848 68.24 65.736 65.152 67.304 61.888C68.872 58.624 70.072 55.408 70.904 52.24H77.864V53.008ZM81.752 41.968C81.72 42.352 81.56 42.672 81.272 42.928C81.016 43.184 80.504 43.376 79.736 43.504V84.496C79.736 84.688 79.512 84.912 79.064 85.168C78.616 85.424 78.024 85.648 77.288 85.84C76.584 86.064 75.832 86.176 75.032 86.176H73.928V41.152L81.752 41.968ZM84.056 69.52C84.056 69.52 84.232 69.68 84.584 70C84.936 70.288 85.384 70.688 85.928 71.2C86.472 71.68 87.032 72.208 87.608 72.784C88.216 73.328 88.76 73.856 89.24 74.368C89.112 74.88 88.68 75.136 87.944 75.136H65.048L64.664 73.744H81.08L84.056 69.52ZM92.264 47.68C92.264 47.68 92.472 47.856 92.888 48.208C93.304 48.56 93.816 48.992 94.424 49.504C95.064 50.016 95.72 50.576 96.392 51.184C97.064 51.76 97.688 52.304 98.264 52.816C98.136 53.328 97.688 53.584 96.92 53.584H56.552L56.12 52.24H88.952L92.264 47.68ZM77.912 116.304C81.976 116.496 85.336 116.928 87.992 117.6C90.648 118.272 92.712 119.056 94.184 119.952C95.656 120.816 96.648 121.712 97.16 122.64C97.704 123.536 97.864 124.352 97.64 125.088C97.448 125.792 97.016 126.288 96.344 126.576C95.704 126.864 94.92 126.832 93.992 126.48C93.128 125.648 91.896 124.672 90.296 123.552C88.696 122.432 86.824 121.296 84.68 120.144C82.536 118.96 80.216 117.888 77.72 116.928L77.912 116.304ZM81.416 126.192L84.584 123.264L89.672 127.872C89.48 128.064 89.24 128.192 88.952 128.256C88.664 128.32 88.264 128.384 87.752 128.448C86.792 128.768 85.688 129.136 84.44 129.552C83.224 129.968 81.96 130.384 80.648 130.8C79.336 131.184 78.104 131.52 76.952 131.808H76.328C76.968 131.264 77.64 130.656 78.344 129.984C79.08 129.28 79.768 128.592 80.408 127.92C81.08 127.216 81.608 126.64 81.992 126.192H81.416ZM85.208 126.192V127.584H63.896L63.464 126.192H85.208ZM93.08 108.384C92.824 108.608 92.424 108.72 91.88 108.72C91.368 108.688 90.744 108.496 90.008 108.144C88.056 108.368 85.88 108.576 83.48 108.768C81.112 108.928 78.6 109.056 75.944 109.152C73.32 109.248 70.68 109.312 68.024 109.344C65.368 109.376 62.792 109.36 60.296 109.296L60.2 108.528C62.568 108.272 65.048 107.952 67.64 107.568C70.232 107.152 72.792 106.688 75.32 106.176C77.88 105.664 80.264 105.152 82.472 104.64C84.68 104.128 86.568 103.632 88.136 103.152L93.08 108.384ZM77.432 115.008C75.192 117.952 72.12 120.48 68.216 122.592C64.312 124.672 59.96 126.336 55.16 127.584L54.824 127.008C57.064 125.952 59.16 124.752 61.112 123.408C63.096 122.032 64.872 120.56 66.44 118.992C68.04 117.392 69.352 115.808 70.376 114.24H77.432V115.008ZM81.416 131.232C81.384 131.552 81.24 131.808 80.984 132C80.728 132.192 80.328 132.32 79.784 132.384V141.696C79.784 142.976 79.624 144.064 79.304 144.96C78.984 145.856 78.296 146.576 77.24 147.12C76.216 147.664 74.648 148.032 72.536 148.224C72.44 147.36 72.312 146.608 72.152 145.968C71.992 145.36 71.704 144.832 71.288 144.384C70.904 144 70.376 143.648 69.704 143.328C69.064 143.008 68.12 142.752 66.872 142.56V141.936C66.872 141.936 67.144 141.952 67.688 141.984C68.264 142.016 68.936 142.064 69.704 142.128C70.504 142.16 71.24 142.192 71.912 142.224C72.616 142.256 73.096 142.272 73.352 142.272C73.704 142.272 73.944 142.224 74.072 142.128C74.232 142 74.312 141.792 74.312 141.504V130.608L81.416 131.232ZM93.512 130.704C93.512 130.704 93.688 130.864 94.04 131.184C94.424 131.472 94.888 131.856 95.432 132.336C96.008 132.816 96.6 133.328 97.208 133.872C97.848 134.384 98.408 134.88 98.888 135.36C98.792 135.872 98.36 136.128 97.592 136.128H55.496L55.064 134.736H90.488L93.512 130.704ZM92.504 110.016C92.504 110.016 92.68 110.16 93.032 110.448C93.384 110.704 93.848 111.056 94.424 111.504C95 111.92 95.592 112.384 96.2 112.896C96.808 113.376 97.384 113.84 97.928 114.288C97.8 114.8 97.352 115.056 96.584 115.056H56.36L55.976 113.664H89.528L92.504 110.016ZM79.688 124.224C79.688 124.352 79.272 124.576 78.44 124.896C77.64 125.216 76.536 125.376 75.128 125.376H74.12V108.048H79.688V124.224ZM77.864 168.128C78.12 172.736 78.632 176.912 79.4 180.656C80.2 184.368 81.416 187.68 83.048 190.592C84.68 193.504 86.856 196.048 89.576 198.224C92.296 200.4 95.704 202.256 99.8 203.792L99.752 204.368C98.28 204.624 97.096 205.232 96.2 206.192C95.304 207.152 94.68 208.416 94.328 209.984C90.744 208.096 87.848 205.792 85.64 203.072C83.432 200.352 81.72 197.248 80.504 193.76C79.32 190.24 78.472 186.352 77.96 182.096C77.48 177.808 77.176 173.168 77.048 168.176L77.864 168.128ZM77.864 168.128C77.8 170.624 77.688 173.152 77.528 175.712C77.4 178.272 77.128 180.816 76.712 183.344C76.328 185.872 75.656 188.368 74.696 190.832C73.768 193.264 72.488 195.632 70.856 197.936C69.224 200.208 67.112 202.384 64.52 204.464C61.96 206.512 58.824 208.432 55.112 210.224L54.584 209.552C58.072 206.992 60.904 204.336 63.08 201.584C65.288 198.832 66.984 196 68.168 193.088C69.384 190.176 70.232 187.232 70.712 184.256C71.192 181.248 71.48 178.224 71.576 175.184C71.672 172.112 71.72 169.056 71.72 166.016L79.592 166.784C79.56 167.136 79.416 167.424 79.16 167.648C78.936 167.872 78.504 168.032 77.864 168.128ZM69.128 261.904C69 262.16 68.76 262.368 68.408 262.528C68.056 262.656 67.624 262.656 67.112 262.528C65.608 264.256 63.912 265.76 62.024 267.04C60.168 268.32 58.296 269.328 56.408 270.064L55.928 269.536C57.144 268.352 58.36 266.784 59.576 264.832C60.824 262.88 61.896 260.832 62.792 258.688L69.128 261.904ZM84.728 249.28C84.6 249.568 84.376 249.792 84.056 249.952C83.736 250.08 83.32 250.128 82.808 250.096C81.72 251.024 80.552 251.968 79.304 252.928C78.088 253.888 76.952 254.688 75.896 255.328L75.272 254.896C75.72 253.904 76.216 252.656 76.76 251.152C77.304 249.616 77.832 248.096 78.344 246.592L84.728 249.28ZM60.2 247.072C62.12 247.552 63.608 248.144 64.664 248.848C65.72 249.52 66.44 250.24 66.824 251.008C67.24 251.776 67.384 252.496 67.256 253.168C67.128 253.84 66.824 254.384 66.344 254.8C65.864 255.216 65.272 255.424 64.568 255.424C63.896 255.392 63.208 255.088 62.504 254.512C62.44 253.68 62.264 252.832 61.976 251.968C61.688 251.072 61.336 250.24 60.92 249.472C60.536 248.672 60.136 247.952 59.72 247.312L60.2 247.072ZM75.704 259.792C78.168 260.08 80.152 260.592 81.656 261.328C83.16 262.032 84.264 262.832 84.968 263.728C85.704 264.592 86.104 265.44 86.168 266.272C86.232 267.104 86.056 267.808 85.64 268.384C85.256 268.992 84.696 269.36 83.96 269.488C83.224 269.648 82.408 269.456 81.512 268.912C81.16 267.856 80.632 266.8 79.928 265.744C79.256 264.688 78.504 263.68 77.672 262.72C76.872 261.728 76.088 260.848 75.32 260.08L75.704 259.792ZM75.8 246.64C75.768 246.928 75.624 247.184 75.368 247.408C75.144 247.6 74.76 247.744 74.216 247.84V270.736C74.216 270.896 73.992 271.088 73.544 271.312C73.096 271.568 72.536 271.792 71.864 271.984C71.224 272.176 70.568 272.272 69.896 272.272H68.888V245.968L75.8 246.64ZM81.992 253.024C81.992 253.024 82.264 253.232 82.808 253.648C83.352 254.064 84.008 254.576 84.776 255.184C85.544 255.76 86.216 256.336 86.792 256.912C86.696 257.424 86.28 257.68 85.544 257.68H56.504L56.12 256.288H79.304L81.992 253.024ZM92.504 229.456C92.504 229.456 92.68 229.6 93.032 229.888C93.416 230.144 93.896 230.512 94.472 230.992C95.08 231.44 95.704 231.92 96.344 232.432C97.016 232.912 97.624 233.408 98.168 233.92C98.04 234.432 97.592 234.688 96.824 234.688H64.568L65.288 233.296H89.432L92.504 229.456ZM89.336 234.88C89.336 234.88 89.512 235.024 89.864 235.312C90.248 235.568 90.712 235.92 91.256 236.368C91.832 236.784 92.408 237.232 92.984 237.712C93.592 238.192 94.168 238.656 94.712 239.104C94.584 239.616 94.136 239.872 93.368 239.872H66.584L66.2 238.48H86.408L89.336 234.88ZM72.776 230.368C72.648 230.624 72.424 230.832 72.104 230.992C71.784 231.152 71.336 231.2 70.76 231.136C68.776 234.752 66.44 237.776 63.752 240.208C61.064 242.608 58.168 244.544 55.064 246.016L54.584 245.584C55.96 244.176 57.304 242.512 58.616 240.592C59.96 238.672 61.192 236.56 62.312 234.256C63.464 231.952 64.424 229.568 65.192 227.104L72.776 230.368ZM88.664 243.808V245.152H60.296L59.864 243.808H88.664ZM85.352 243.808L88.184 240.64L93.704 245.008C93.384 245.36 92.744 245.616 91.784 245.776C91.72 247.472 91.736 249.28 91.832 251.2C91.928 253.088 92.12 254.928 92.408 256.72C92.728 258.512 93.16 260.112 93.704 261.52C94.28 262.896 95 263.904 95.864 264.544C96.12 264.704 96.312 264.768 96.44 264.736C96.568 264.672 96.696 264.512 96.824 264.256C97.144 263.616 97.432 262.912 97.688 262.144C97.944 261.344 98.184 260.544 98.408 259.744L98.888 259.792L98.504 266.512C99.144 267.6 99.512 268.544 99.608 269.344C99.736 270.144 99.592 270.784 99.176 271.264C98.6 271.872 97.928 272.192 97.16 272.224C96.424 272.256 95.672 272.08 94.904 271.696C94.136 271.344 93.432 270.912 92.792 270.4C91.352 269.248 90.168 267.744 89.24 265.888C88.344 264 87.656 261.872 87.176 259.504C86.696 257.136 86.36 254.608 86.168 251.92C86.008 249.232 85.912 246.528 85.88 243.808H85.352ZM66.728 303.024H74.936V304.416H67.16L66.728 303.024ZM73.352 303.024H72.824L75.512 300.24L80.312 304.32C80.056 304.704 79.464 304.944 78.536 305.04C78.024 307.888 77.256 310.752 76.232 313.632C75.208 316.48 73.784 319.184 71.96 321.744C70.136 324.272 67.8 326.496 64.952 328.416L64.472 327.888C66.36 325.776 67.912 323.344 69.128 320.592C70.344 317.808 71.288 314.912 71.96 311.904C72.632 308.864 73.096 305.904 73.352 303.024ZM85.112 298.272C85.656 301.952 86.424 305.168 87.416 307.92C88.408 310.672 89.592 313.04 90.968 315.024C92.344 316.976 93.832 318.64 95.432 320.016C97.032 321.392 98.696 322.56 100.424 323.52L100.184 324.048C99 324.272 97.96 324.896 97.064 325.92C96.2 326.944 95.56 328.144 95.144 329.52C93.576 327.888 92.216 326.128 91.064 324.24C89.912 322.32 88.92 320.16 88.088 317.76C87.256 315.36 86.568 312.576 86.024 309.408C85.48 306.24 85.048 302.576 84.728 298.416L85.112 298.272ZM85.16 291.888V327.552C85.16 328.832 85 329.92 84.68 330.816C84.36 331.744 83.672 332.48 82.616 333.024C81.592 333.568 79.992 333.936 77.816 334.128C77.72 333.264 77.576 332.512 77.384 331.872C77.192 331.264 76.888 330.752 76.472 330.336C76.056 329.888 75.496 329.52 74.792 329.232C74.12 328.912 73.112 328.656 71.768 328.464V327.744C71.768 327.744 72.056 327.776 72.632 327.84C73.24 327.872 73.944 327.92 74.744 327.984C75.576 328.016 76.36 328.048 77.096 328.08C77.864 328.112 78.392 328.128 78.68 328.128C79.128 328.128 79.416 328.048 79.544 327.888C79.704 327.728 79.784 327.488 79.784 327.168V289.872L86.84 290.592C86.808 290.912 86.68 291.184 86.456 291.408C86.232 291.632 85.8 291.792 85.16 291.888ZM93.272 297.6L99.656 301.728C99.496 301.952 99.288 302.128 99.032 302.256C98.776 302.352 98.36 302.352 97.784 302.256C96.888 302.928 95.848 303.68 94.664 304.512C93.48 305.344 92.232 306.16 90.92 306.96C89.608 307.76 88.28 308.496 86.936 309.168L86.504 308.688C87.336 307.632 88.184 306.432 89.048 305.088C89.944 303.712 90.76 302.368 91.496 301.056C92.232 299.712 92.824 298.56 93.272 297.6ZM56.072 292.224C58.376 292.672 60.2 293.296 61.544 294.096C62.92 294.896 63.896 295.76 64.472 296.688C65.048 297.584 65.304 298.448 65.24 299.28C65.208 300.112 64.952 300.8 64.472 301.344C63.992 301.888 63.368 302.192 62.6 302.256C61.832 302.288 61.016 301.984 60.152 301.344C59.992 300.32 59.672 299.28 59.192 298.224C58.744 297.136 58.2 296.112 57.56 295.152C56.952 294.16 56.312 293.28 55.64 292.512L56.072 292.224ZM56.696 318.288C57.08 318.288 57.352 318.256 57.512 318.192C57.672 318.096 57.896 317.808 58.184 317.328C58.408 316.976 58.616 316.64 58.808 316.32C59 315.968 59.272 315.456 59.624 314.784C59.976 314.112 60.472 313.12 61.112 311.808C61.784 310.496 62.696 308.704 63.848 306.432C65 304.128 66.488 301.168 68.312 297.552L69.08 297.792C68.696 298.88 68.248 300.128 67.736 301.536C67.224 302.912 66.712 304.336 66.2 305.808C65.688 307.248 65.192 308.656 64.712 310.032C64.264 311.376 63.864 312.56 63.512 313.584C63.192 314.576 62.952 315.312 62.792 315.792C62.6 316.528 62.424 317.28 62.264 318.048C62.104 318.816 62.04 319.504 62.072 320.112C62.104 320.912 62.28 321.68 62.6 322.416C62.92 323.152 63.224 323.968 63.512 324.864C63.8 325.76 63.912 326.864 63.848 328.176C63.816 329.36 63.448 330.288 62.744 330.96C62.04 331.664 61.112 332.016 59.96 332.016C59.384 332.016 58.856 331.824 58.376 331.44C57.928 331.056 57.624 330.448 57.464 329.616C57.752 327.984 57.912 326.48 57.944 325.104C57.976 323.728 57.912 322.592 57.752 321.696C57.592 320.768 57.32 320.176 56.936 319.92C56.616 319.696 56.264 319.536 55.88 319.44C55.496 319.312 55.032 319.232 54.488 319.2V318.288C54.488 318.288 54.632 318.288 54.92 318.288C55.208 318.288 55.528 318.288 55.88 318.288C56.264 318.288 56.536 318.288 56.696 318.288ZM64.424 354.704V352.352L70.328 354.704H86.744V356.048H70.088V370.88C70.088 371.04 69.848 371.264 69.368 371.552C68.888 371.84 68.28 372.096 67.544 372.32C66.808 372.544 66.04 372.656 65.24 372.656H64.424V354.704ZM83.912 354.704H83.432L86.072 351.824L91.544 355.952C91.416 356.144 91.176 356.352 90.824 356.576C90.472 356.768 90.056 356.912 89.576 357.008V370.688C89.576 370.816 89.304 371.008 88.76 371.264C88.248 371.52 87.624 371.744 86.888 371.936C86.184 372.128 85.512 372.224 84.872 372.224H83.912V354.704ZM67.4 366.992H86.888V368.384H67.4V366.992ZM56.936 375.632V373.376L62.552 375.632H72.296V376.976H62.312V394.112C62.312 394.24 62.088 394.448 61.64 394.736C61.224 395.024 60.664 395.28 59.96 395.504C59.256 395.728 58.52 395.84 57.752 395.84H56.936V375.632ZM69.272 375.632H68.792L71.384 372.848L76.664 376.88C76.536 377.072 76.296 377.264 75.944 377.456C75.624 377.648 75.224 377.792 74.744 377.888V393.392C74.744 393.52 74.488 393.712 73.976 393.968C73.464 394.224 72.856 394.448 72.152 394.64C71.48 394.864 70.824 394.976 70.184 394.976H69.272V375.632ZM58.904 389.648H71.768V390.992H58.904V389.648ZM79.016 375.632V373.376L84.68 375.632H95.048V376.976H84.44V394.16C84.44 394.32 84.216 394.528 83.768 394.784C83.32 395.072 82.744 395.328 82.04 395.552C81.336 395.776 80.6 395.888 79.832 395.888H79.016V375.632ZM91.736 375.632H91.256L93.848 372.8L99.272 376.88C99.144 377.072 98.904 377.264 98.552 377.456C98.2 377.648 97.784 377.808 97.304 377.936V393.872C97.304 393.968 97.032 394.128 96.488 394.352C95.976 394.576 95.368 394.768 94.664 394.928C93.96 395.12 93.288 395.216 92.648 395.216H91.736V375.632ZM80.744 389.648H94.232V390.992H80.744V389.648Z" fill="#A4C4D7"/>
</g>
<rect width="10" height="347" fill="#FFEFA8"/>
<path d="M44.976 20.24C45.936 22.576 47.136 24.784 48.576 26.864C50.016 28.912 51.616 30.816 53.376 32.576C55.136 34.304 56.976 35.84 58.896 37.184C60.816 38.496 62.752 39.6 64.704 40.496L64.56 40.976C63.44 41.2 62.416 41.76 61.488 42.656C60.592 43.52 59.904 44.64 59.424 46.016C56.992 44.256 54.816 42.128 52.896 39.632C51.008 37.136 49.344 34.288 47.904 31.088C46.496 27.888 45.328 24.352 44.4 20.48L44.976 20.24ZM42.864 21.008C41.04 26.544 38.192 31.568 34.32 36.08C30.448 40.56 25.584 44.288 19.728 47.264L19.248 46.784C22 44.608 24.464 42.064 26.64 39.152C28.848 36.24 30.736 33.152 32.304 29.888C33.872 26.624 35.072 23.408 35.904 20.24H42.864V21.008ZM46.752 9.968C46.72 10.352 46.56 10.672 46.272 10.928C46.016 11.184 45.504 11.376 44.736 11.504V52.496C44.736 52.688 44.512 52.912 44.064 53.168C43.616 53.424 43.024 53.648 42.288 53.84C41.584 54.064 40.832 54.176 40.032 54.176H38.928V9.152L46.752 9.968ZM49.056 37.52C49.056 37.52 49.232 37.68 49.584 38C49.936 38.288 50.384 38.688 50.928 39.2C51.472 39.68 52.032 40.208 52.608 40.784C53.216 41.328 53.76 41.856 54.24 42.368C54.112 42.88 53.68 43.136 52.944 43.136H30.048L29.664 41.744H46.08L49.056 37.52ZM57.264 15.68C57.264 15.68 57.472 15.856 57.888 16.208C58.304 16.56 58.816 16.992 59.424 17.504C60.064 18.016 60.72 18.576 61.392 19.184C62.064 19.76 62.688 20.304 63.264 20.816C63.136 21.328 62.688 21.584 61.92 21.584H21.552L21.12 20.24H53.952L57.264 15.68ZM42.912 84.304C46.976 84.496 50.336 84.928 52.992 85.6C55.648 86.272 57.712 87.056 59.184 87.952C60.656 88.816 61.648 89.712 62.16 90.64C62.704 91.536 62.864 92.352 62.64 93.088C62.448 93.792 62.016 94.288 61.344 94.576C60.704 94.864 59.92 94.832 58.992 94.48C58.128 93.648 56.896 92.672 55.296 91.552C53.696 90.432 51.824 89.296 49.68 88.144C47.536 86.96 45.216 85.888 42.72 84.928L42.912 84.304ZM46.416 94.192L49.584 91.264L54.672 95.872C54.48 96.064 54.24 96.192 53.952 96.256C53.664 96.32 53.264 96.384 52.752 96.448C51.792 96.768 50.688 97.136 49.44 97.552C48.224 97.968 46.96 98.384 45.648 98.8C44.336 99.184 43.104 99.52 41.952 99.808H41.328C41.968 99.264 42.64 98.656 43.344 97.984C44.08 97.28 44.768 96.592 45.408 95.92C46.08 95.216 46.608 94.64 46.992 94.192H46.416ZM50.208 94.192V95.584H28.896L28.464 94.192H50.208ZM58.08 76.384C57.824 76.608 57.424 76.72 56.88 76.72C56.368 76.688 55.744 76.496 55.008 76.144C53.056 76.368 50.88 76.576 48.48 76.768C46.112 76.928 43.6 77.056 40.944 77.152C38.32 77.248 35.68 77.312 33.024 77.344C30.368 77.376 27.792 77.36 25.296 77.296L25.2 76.528C27.568 76.272 30.048 75.952 32.64 75.568C35.232 75.152 37.792 74.688 40.32 74.176C42.88 73.664 45.264 73.152 47.472 72.64C49.68 72.128 51.568 71.632 53.136 71.152L58.08 76.384ZM42.432 83.008C40.192 85.952 37.12 88.48 33.216 90.592C29.312 92.672 24.96 94.336 20.16 95.584L19.824 95.008C22.064 93.952 24.16 92.752 26.112 91.408C28.096 90.032 29.872 88.56 31.44 86.992C33.04 85.392 34.352 83.808 35.376 82.24H42.432V83.008ZM46.416 99.232C46.384 99.552 46.24 99.808 45.984 100C45.728 100.192 45.328 100.32 44.784 100.384V109.696C44.784 110.976 44.624 112.064 44.304 112.96C43.984 113.856 43.296 114.576 42.24 115.12C41.216 115.664 39.648 116.032 37.536 116.224C37.44 115.36 37.312 114.608 37.152 113.968C36.992 113.36 36.704 112.832 36.288 112.384C35.904 112 35.376 111.648 34.704 111.328C34.064 111.008 33.12 110.752 31.872 110.56V109.936C31.872 109.936 32.144 109.952 32.688 109.984C33.264 110.016 33.936 110.064 34.704 110.128C35.504 110.16 36.24 110.192 36.912 110.224C37.616 110.256 38.096 110.272 38.352 110.272C38.704 110.272 38.944 110.224 39.072 110.128C39.232 110 39.312 109.792 39.312 109.504V98.608L46.416 99.232ZM58.512 98.704C58.512 98.704 58.688 98.864 59.04 99.184C59.424 99.472 59.888 99.856 60.432 100.336C61.008 100.816 61.6 101.328 62.208 101.872C62.848 102.384 63.408 102.88 63.888 103.36C63.792 103.872 63.36 104.128 62.592 104.128H20.496L20.064 102.736H55.488L58.512 98.704ZM57.504 78.016C57.504 78.016 57.68 78.16 58.032 78.448C58.384 78.704 58.848 79.056 59.424 79.504C60 79.92 60.592 80.384 61.2 80.896C61.808 81.376 62.384 81.84 62.928 82.288C62.8 82.8 62.352 83.056 61.584 83.056H21.36L20.976 81.664H54.528L57.504 78.016ZM44.688 92.224C44.688 92.352 44.272 92.576 43.44 92.896C42.64 93.216 41.536 93.376 40.128 93.376H39.12V76.048H44.688V92.224ZM42.864 136.128C43.12 140.736 43.632 144.912 44.4 148.656C45.2 152.368 46.416 155.68 48.048 158.592C49.68 161.504 51.856 164.048 54.576 166.224C57.296 168.4 60.704 170.256 64.8 171.792L64.752 172.368C63.28 172.624 62.096 173.232 61.2 174.192C60.304 175.152 59.68 176.416 59.328 177.984C55.744 176.096 52.848 173.792 50.64 171.072C48.432 168.352 46.72 165.248 45.504 161.76C44.32 158.24 43.472 154.352 42.96 150.096C42.48 145.808 42.176 141.168 42.048 136.176L42.864 136.128ZM42.864 136.128C42.8 138.624 42.688 141.152 42.528 143.712C42.4 146.272 42.128 148.816 41.712 151.344C41.328 153.872 40.656 156.368 39.696 158.832C38.768 161.264 37.488 163.632 35.856 165.936C34.224 168.208 32.112 170.384 29.52 172.464C26.96 174.512 23.824 176.432 20.112 178.224L19.584 177.552C23.072 174.992 25.904 172.336 28.08 169.584C30.288 166.832 31.984 164 33.168 161.088C34.384 158.176 35.232 155.232 35.712 152.256C36.192 149.248 36.48 146.224 36.576 143.184C36.672 140.112 36.72 137.056 36.72 134.016L44.592 134.784C44.56 135.136 44.416 135.424 44.16 135.648C43.936 135.872 43.504 136.032 42.864 136.128ZM34.128 229.904C34 230.16 33.76 230.368 33.408 230.528C33.056 230.656 32.624 230.656 32.112 230.528C30.608 232.256 28.912 233.76 27.024 235.04C25.168 236.32 23.296 237.328 21.408 238.064L20.928 237.536C22.144 236.352 23.36 234.784 24.576 232.832C25.824 230.88 26.896 228.832 27.792 226.688L34.128 229.904ZM49.728 217.28C49.6 217.568 49.376 217.792 49.056 217.952C48.736 218.08 48.32 218.128 47.808 218.096C46.72 219.024 45.552 219.968 44.304 220.928C43.088 221.888 41.952 222.688 40.896 223.328L40.272 222.896C40.72 221.904 41.216 220.656 41.76 219.152C42.304 217.616 42.832 216.096 43.344 214.592L49.728 217.28ZM25.2 215.072C27.12 215.552 28.608 216.144 29.664 216.848C30.72 217.52 31.44 218.24 31.824 219.008C32.24 219.776 32.384 220.496 32.256 221.168C32.128 221.84 31.824 222.384 31.344 222.8C30.864 223.216 30.272 223.424 29.568 223.424C28.896 223.392 28.208 223.088 27.504 222.512C27.44 221.68 27.264 220.832 26.976 219.968C26.688 219.072 26.336 218.24 25.92 217.472C25.536 216.672 25.136 215.952 24.72 215.312L25.2 215.072ZM40.704 227.792C43.168 228.08 45.152 228.592 46.656 229.328C48.16 230.032 49.264 230.832 49.968 231.728C50.704 232.592 51.104 233.44 51.168 234.272C51.232 235.104 51.056 235.808 50.64 236.384C50.256 236.992 49.696 237.36 48.96 237.488C48.224 237.648 47.408 237.456 46.512 236.912C46.16 235.856 45.632 234.8 44.928 233.744C44.256 232.688 43.504 231.68 42.672 230.72C41.872 229.728 41.088 228.848 40.32 228.08L40.704 227.792ZM40.8 214.64C40.768 214.928 40.624 215.184 40.368 215.408C40.144 215.6 39.76 215.744 39.216 215.84V238.736C39.216 238.896 38.992 239.088 38.544 239.312C38.096 239.568 37.536 239.792 36.864 239.984C36.224 240.176 35.568 240.272 34.896 240.272H33.888V213.968L40.8 214.64ZM46.992 221.024C46.992 221.024 47.264 221.232 47.808 221.648C48.352 222.064 49.008 222.576 49.776 223.184C50.544 223.76 51.216 224.336 51.792 224.912C51.696 225.424 51.28 225.68 50.544 225.68H21.504L21.12 224.288H44.304L46.992 221.024ZM57.504 197.456C57.504 197.456 57.68 197.6 58.032 197.888C58.416 198.144 58.896 198.512 59.472 198.992C60.08 199.44 60.704 199.92 61.344 200.432C62.016 200.912 62.624 201.408 63.168 201.92C63.04 202.432 62.592 202.688 61.824 202.688H29.568L30.288 201.296H54.432L57.504 197.456ZM54.336 202.88C54.336 202.88 54.512 203.024 54.864 203.312C55.248 203.568 55.712 203.92 56.256 204.368C56.832 204.784 57.408 205.232 57.984 205.712C58.592 206.192 59.168 206.656 59.712 207.104C59.584 207.616 59.136 207.872 58.368 207.872H31.584L31.2 206.48H51.408L54.336 202.88ZM37.776 198.368C37.648 198.624 37.424 198.832 37.104 198.992C36.784 199.152 36.336 199.2 35.76 199.136C33.776 202.752 31.44 205.776 28.752 208.208C26.064 210.608 23.168 212.544 20.064 214.016L19.584 213.584C20.96 212.176 22.304 210.512 23.616 208.592C24.96 206.672 26.192 204.56 27.312 202.256C28.464 199.952 29.424 197.568 30.192 195.104L37.776 198.368ZM53.664 211.808V213.152H25.296L24.864 211.808H53.664ZM50.352 211.808L53.184 208.64L58.704 213.008C58.384 213.36 57.744 213.616 56.784 213.776C56.72 215.472 56.736 217.28 56.832 219.2C56.928 221.088 57.12 222.928 57.408 224.72C57.728 226.512 58.16 228.112 58.704 229.52C59.28 230.896 60 231.904 60.864 232.544C61.12 232.704 61.312 232.768 61.44 232.736C61.568 232.672 61.696 232.512 61.824 232.256C62.144 231.616 62.432 230.912 62.688 230.144C62.944 229.344 63.184 228.544 63.408 227.744L63.888 227.792L63.504 234.512C64.144 235.6 64.512 236.544 64.608 237.344C64.736 238.144 64.592 238.784 64.176 239.264C63.6 239.872 62.928 240.192 62.16 240.224C61.424 240.256 60.672 240.08 59.904 239.696C59.136 239.344 58.432 238.912 57.792 238.4C56.352 237.248 55.168 235.744 54.24 233.888C53.344 232 52.656 229.872 52.176 227.504C51.696 225.136 51.36 222.608 51.168 219.92C51.008 217.232 50.912 214.528 50.88 211.808H50.352ZM31.728 271.024H39.936V272.416H32.16L31.728 271.024ZM38.352 271.024H37.824L40.512 268.24L45.312 272.32C45.056 272.704 44.464 272.944 43.536 273.04C43.024 275.888 42.256 278.752 41.232 281.632C40.208 284.48 38.784 287.184 36.96 289.744C35.136 292.272 32.8 294.496 29.952 296.416L29.472 295.888C31.36 293.776 32.912 291.344 34.128 288.592C35.344 285.808 36.288 282.912 36.96 279.904C37.632 276.864 38.096 273.904 38.352 271.024ZM50.112 266.272C50.656 269.952 51.424 273.168 52.416 275.92C53.408 278.672 54.592 281.04 55.968 283.024C57.344 284.976 58.832 286.64 60.432 288.016C62.032 289.392 63.696 290.56 65.424 291.52L65.184 292.048C64 292.272 62.96 292.896 62.064 293.92C61.2 294.944 60.56 296.144 60.144 297.52C58.576 295.888 57.216 294.128 56.064 292.24C54.912 290.32 53.92 288.16 53.088 285.76C52.256 283.36 51.568 280.576 51.024 277.408C50.48 274.24 50.048 270.576 49.728 266.416L50.112 266.272ZM50.16 259.888V295.552C50.16 296.832 50 297.92 49.68 298.816C49.36 299.744 48.672 300.48 47.616 301.024C46.592 301.568 44.992 301.936 42.816 302.128C42.72 301.264 42.576 300.512 42.384 299.872C42.192 299.264 41.888 298.752 41.472 298.336C41.056 297.888 40.496 297.52 39.792 297.232C39.12 296.912 38.112 296.656 36.768 296.464V295.744C36.768 295.744 37.056 295.776 37.632 295.84C38.24 295.872 38.944 295.92 39.744 295.984C40.576 296.016 41.36 296.048 42.096 296.08C42.864 296.112 43.392 296.128 43.68 296.128C44.128 296.128 44.416 296.048 44.544 295.888C44.704 295.728 44.784 295.488 44.784 295.168V257.872L51.84 258.592C51.808 258.912 51.68 259.184 51.456 259.408C51.232 259.632 50.8 259.792 50.16 259.888ZM58.272 265.6L64.656 269.728C64.496 269.952 64.288 270.128 64.032 270.256C63.776 270.352 63.36 270.352 62.784 270.256C61.888 270.928 60.848 271.68 59.664 272.512C58.48 273.344 57.232 274.16 55.92 274.96C54.608 275.76 53.28 276.496 51.936 277.168L51.504 276.688C52.336 275.632 53.184 274.432 54.048 273.088C54.944 271.712 55.76 270.368 56.496 269.056C57.232 267.712 57.824 266.56 58.272 265.6ZM21.072 260.224C23.376 260.672 25.2 261.296 26.544 262.096C27.92 262.896 28.896 263.76 29.472 264.688C30.048 265.584 30.304 266.448 30.24 267.28C30.208 268.112 29.952 268.8 29.472 269.344C28.992 269.888 28.368 270.192 27.6 270.256C26.832 270.288 26.016 269.984 25.152 269.344C24.992 268.32 24.672 267.28 24.192 266.224C23.744 265.136 23.2 264.112 22.56 263.152C21.952 262.16 21.312 261.28 20.64 260.512L21.072 260.224ZM21.696 286.288C22.08 286.288 22.352 286.256 22.512 286.192C22.672 286.096 22.896 285.808 23.184 285.328C23.408 284.976 23.616 284.64 23.808 284.32C24 283.968 24.272 283.456 24.624 282.784C24.976 282.112 25.472 281.12 26.112 279.808C26.784 278.496 27.696 276.704 28.848 274.432C30 272.128 31.488 269.168 33.312 265.552L34.08 265.792C33.696 266.88 33.248 268.128 32.736 269.536C32.224 270.912 31.712 272.336 31.2 273.808C30.688 275.248 30.192 276.656 29.712 278.032C29.264 279.376 28.864 280.56 28.512 281.584C28.192 282.576 27.952 283.312 27.792 283.792C27.6 284.528 27.424 285.28 27.264 286.048C27.104 286.816 27.04 287.504 27.072 288.112C27.104 288.912 27.28 289.68 27.6 290.416C27.92 291.152 28.224 291.968 28.512 292.864C28.8 293.76 28.912 294.864 28.848 296.176C28.816 297.36 28.448 298.288 27.744 298.96C27.04 299.664 26.112 300.016 24.96 300.016C24.384 300.016 23.856 299.824 23.376 299.44C22.928 299.056 22.624 298.448 22.464 297.616C22.752 295.984 22.912 294.48 22.944 293.104C22.976 291.728 22.912 290.592 22.752 289.696C22.592 288.768 22.32 288.176 21.936 287.92C21.616 287.696 21.264 287.536 20.88 287.44C20.496 287.312 20.032 287.232 19.488 287.2V286.288C19.488 286.288 19.632 286.288 19.92 286.288C20.208 286.288 20.528 286.288 20.88 286.288C21.264 286.288 21.536 286.288 21.696 286.288ZM29.424 322.704V320.352L35.328 322.704H51.744V324.048H35.088V338.88C35.088 339.04 34.848 339.264 34.368 339.552C33.888 339.84 33.28 340.096 32.544 340.32C31.808 340.544 31.04 340.656 30.24 340.656H29.424V322.704ZM48.912 322.704H48.432L51.072 319.824L56.544 323.952C56.416 324.144 56.176 324.352 55.824 324.576C55.472 324.768 55.056 324.912 54.576 325.008V338.688C54.576 338.816 54.304 339.008 53.76 339.264C53.248 339.52 52.624 339.744 51.888 339.936C51.184 340.128 50.512 340.224 49.872 340.224H48.912V322.704ZM32.4 334.992H51.888V336.384H32.4V334.992ZM21.936 343.632V341.376L27.552 343.632H37.296V344.976H27.312V362.112C27.312 362.24 27.088 362.448 26.64 362.736C26.224 363.024 25.664 363.28 24.96 363.504C24.256 363.728 23.52 363.84 22.752 363.84H21.936V343.632ZM34.272 343.632H33.792L36.384 340.848L41.664 344.88C41.536 345.072 41.296 345.264 40.944 345.456C40.624 345.648 40.224 345.792 39.744 345.888V361.392C39.744 361.52 39.488 361.712 38.976 361.968C38.464 362.224 37.856 362.448 37.152 362.64C36.48 362.864 35.824 362.976 35.184 362.976H34.272V343.632ZM23.904 357.648H36.768V358.992H23.904V357.648ZM44.016 343.632V341.376L49.68 343.632H60.048V344.976H49.44V362.16C49.44 362.32 49.216 362.528 48.768 362.784C48.32 363.072 47.744 363.328 47.04 363.552C46.336 363.776 45.6 363.888 44.832 363.888H44.016V343.632ZM56.736 343.632H56.256L58.848 340.8L64.272 344.88C64.144 345.072 63.904 345.264 63.552 345.456C63.2 345.648 62.784 345.808 62.304 345.936V361.872C62.304 361.968 62.032 362.128 61.488 362.352C60.976 362.576 60.368 362.768 59.664 362.928C58.96 363.12 58.288 363.216 57.648 363.216H56.736V343.632ZM45.744 357.648H59.232V358.992H45.744V357.648Z" fill="#3F88B4"/>
<defs>
<filter id="filter0_f_520_736" x="50.248" y="37.152" width="54.1758" height="362.736" filterUnits="userSpaceOnUse" color-interpolation-filters="sRGB">
<feFlood flood-opacity="0" result="BackgroundImageFix"/>
<feBlend mode="normal" in="SourceGraphic" in2="BackgroundImageFix" result="shape"/>
<feGaussianBlur stdDeviation="2" result="effect1_foregroundBlur_520_736"/>
</filter>
</defs>
</svg>
