<svg width="286" height="46" viewBox="0 0 286 46" fill="none" xmlns="http://www.w3.org/2000/svg">
<path d="M25.976 11.24C26.936 13.576 28.136 15.784 29.576 17.864C31.016 19.912 32.616 21.816 34.376 23.576C36.136 25.304 37.976 26.84 39.896 28.184C41.816 29.496 43.752 30.6 45.704 31.496L45.56 31.976C44.44 32.2 43.416 32.76 42.488 33.656C41.592 34.52 40.904 35.64 40.424 37.016C37.992 35.256 35.816 33.128 33.896 30.632C32.008 28.136 30.344 25.288 28.904 22.088C27.496 18.888 26.328 15.352 25.4 11.48L25.976 11.24ZM23.864 12.008C22.04 17.544 19.192 22.568 15.32 27.08C11.448 31.56 6.584 35.288 0.728 38.264L0.248 37.784C3 35.608 5.464 33.064 7.64 30.152C9.848 27.24 11.736 24.152 13.304 20.888C14.872 17.624 16.072 14.408 16.904 11.24H23.864V12.008ZM27.752 0.967998C27.72 1.352 27.56 1.672 27.272 1.928C27.016 2.184 26.504 2.376 25.736 2.504V43.496C25.736 43.688 25.512 43.912 25.064 44.168C24.616 44.424 24.024 44.648 23.288 44.84C22.584 45.064 21.832 45.176 21.032 45.176H19.928V0.151999L27.752 0.967998ZM30.056 28.52C30.056 28.52 30.232 28.68 30.584 29C30.936 29.288 31.384 29.688 31.928 30.2C32.472 30.68 33.032 31.208 33.608 31.784C34.216 32.328 34.76 32.856 35.24 33.368C35.112 33.88 34.68 34.136 33.944 34.136H11.048L10.664 32.744H27.08L30.056 28.52ZM38.264 6.68C38.264 6.68 38.472 6.856 38.888 7.208C39.304 7.56 39.816 7.992 40.424 8.504C41.064 9.016 41.72 9.576 42.392 10.184C43.064 10.76 43.688 11.304 44.264 11.816C44.136 12.328 43.688 12.584 42.92 12.584H2.552L2.12 11.24H34.952L38.264 6.68ZM71.912 13.304C75.976 13.496 79.336 13.928 81.992 14.6C84.648 15.272 86.712 16.056 88.184 16.952C89.656 17.816 90.648 18.712 91.16 19.64C91.704 20.536 91.864 21.352 91.64 22.088C91.448 22.792 91.016 23.288 90.344 23.576C89.704 23.864 88.92 23.832 87.992 23.48C87.128 22.648 85.896 21.672 84.296 20.552C82.696 19.432 80.824 18.296 78.68 17.144C76.536 15.96 74.216 14.888 71.72 13.928L71.912 13.304ZM75.416 23.192L78.584 20.264L83.672 24.872C83.48 25.064 83.24 25.192 82.952 25.256C82.664 25.32 82.264 25.384 81.752 25.448C80.792 25.768 79.688 26.136 78.44 26.552C77.224 26.968 75.96 27.384 74.648 27.8C73.336 28.184 72.104 28.52 70.952 28.808H70.328C70.968 28.264 71.64 27.656 72.344 26.984C73.08 26.28 73.768 25.592 74.408 24.92C75.08 24.216 75.608 23.64 75.992 23.192H75.416ZM79.208 23.192V24.584H57.896L57.464 23.192H79.208ZM87.08 5.384C86.824 5.608 86.424 5.72 85.88 5.72C85.368 5.688 84.744 5.496 84.008 5.144C82.056 5.368 79.88 5.576 77.48 5.768C75.112 5.928 72.6 6.056 69.944 6.152C67.32 6.248 64.68 6.312 62.024 6.344C59.368 6.376 56.792 6.36 54.296 6.296L54.2 5.528C56.568 5.272 59.048 4.952 61.64 4.568C64.232 4.152 66.792 3.688 69.32 3.176C71.88 2.664 74.264 2.152 76.472 1.64C78.68 1.128 80.568 0.631999 82.136 0.151999L87.08 5.384ZM71.432 12.008C69.192 14.952 66.12 17.48 62.216 19.592C58.312 21.672 53.96 23.336 49.16 24.584L48.824 24.008C51.064 22.952 53.16 21.752 55.112 20.408C57.096 19.032 58.872 17.56 60.44 15.992C62.04 14.392 63.352 12.808 64.376 11.24H71.432V12.008ZM75.416 28.232C75.384 28.552 75.24 28.808 74.984 29C74.728 29.192 74.328 29.32 73.784 29.384V38.696C73.784 39.976 73.624 41.064 73.304 41.96C72.984 42.856 72.296 43.576 71.24 44.12C70.216 44.664 68.648 45.032 66.536 45.224C66.44 44.36 66.312 43.608 66.152 42.968C65.992 42.36 65.704 41.832 65.288 41.384C64.904 41 64.376 40.648 63.704 40.328C63.064 40.008 62.12 39.752 60.872 39.56V38.936C60.872 38.936 61.144 38.952 61.688 38.984C62.264 39.016 62.936 39.064 63.704 39.128C64.504 39.16 65.24 39.192 65.912 39.224C66.616 39.256 67.096 39.272 67.352 39.272C67.704 39.272 67.944 39.224 68.072 39.128C68.232 39 68.312 38.792 68.312 38.504V27.608L75.416 28.232ZM87.512 27.704C87.512 27.704 87.688 27.864 88.04 28.184C88.424 28.472 88.888 28.856 89.432 29.336C90.008 29.816 90.6 30.328 91.208 30.872C91.848 31.384 92.408 31.88 92.888 32.36C92.792 32.872 92.36 33.128 91.592 33.128H49.496L49.064 31.736H84.488L87.512 27.704ZM86.504 7.016C86.504 7.016 86.68 7.16 87.032 7.448C87.384 7.704 87.848 8.056 88.424 8.504C89 8.92 89.592 9.384 90.2 9.896C90.808 10.376 91.384 10.84 91.928 11.288C91.8 11.8 91.352 12.056 90.584 12.056H50.36L49.976 10.664H83.528L86.504 7.016ZM73.688 21.224C73.688 21.352 73.272 21.576 72.44 21.896C71.64 22.216 70.536 22.376 69.128 22.376H68.12V5.048H73.688V21.224ZM119.864 3.128C120.12 7.736 120.632 11.912 121.4 15.656C122.2 19.368 123.416 22.68 125.048 25.592C126.68 28.504 128.856 31.048 131.576 33.224C134.296 35.4 137.704 37.256 141.8 38.792L141.752 39.368C140.28 39.624 139.096 40.232 138.2 41.192C137.304 42.152 136.68 43.416 136.328 44.984C132.744 43.096 129.848 40.792 127.64 38.072C125.432 35.352 123.72 32.248 122.504 28.76C121.32 25.24 120.472 21.352 119.96 17.096C119.48 12.808 119.176 8.168 119.048 3.176L119.864 3.128ZM119.864 3.128C119.8 5.624 119.688 8.152 119.528 10.712C119.4 13.272 119.128 15.816 118.712 18.344C118.328 20.872 117.656 23.368 116.696 25.832C115.768 28.264 114.488 30.632 112.856 32.936C111.224 35.208 109.112 37.384 106.52 39.464C103.96 41.512 100.824 43.432 97.112 45.224L96.584 44.552C100.072 41.992 102.904 39.336 105.08 36.584C107.288 33.832 108.984 31 110.168 28.088C111.384 25.176 112.232 22.232 112.712 19.256C113.192 16.248 113.48 13.224 113.576 10.184C113.672 7.112 113.72 4.056 113.72 1.016L121.592 1.784C121.56 2.136 121.416 2.424 121.16 2.648C120.936 2.872 120.504 3.032 119.864 3.128ZM159.128 34.904C159 35.16 158.76 35.368 158.408 35.528C158.056 35.656 157.624 35.656 157.112 35.528C155.608 37.256 153.912 38.76 152.024 40.04C150.168 41.32 148.296 42.328 146.408 43.064L145.928 42.536C147.144 41.352 148.36 39.784 149.576 37.832C150.824 35.88 151.896 33.832 152.792 31.688L159.128 34.904ZM174.728 22.28C174.6 22.568 174.376 22.792 174.056 22.952C173.736 23.08 173.32 23.128 172.808 23.096C171.72 24.024 170.552 24.968 169.304 25.928C168.088 26.888 166.952 27.688 165.896 28.328L165.272 27.896C165.72 26.904 166.216 25.656 166.76 24.152C167.304 22.616 167.832 21.096 168.344 19.592L174.728 22.28ZM150.2 20.072C152.12 20.552 153.608 21.144 154.664 21.848C155.72 22.52 156.44 23.24 156.824 24.008C157.24 24.776 157.384 25.496 157.256 26.168C157.128 26.84 156.824 27.384 156.344 27.8C155.864 28.216 155.272 28.424 154.568 28.424C153.896 28.392 153.208 28.088 152.504 27.512C152.44 26.68 152.264 25.832 151.976 24.968C151.688 24.072 151.336 23.24 150.92 22.472C150.536 21.672 150.136 20.952 149.72 20.312L150.2 20.072ZM165.704 32.792C168.168 33.08 170.152 33.592 171.656 34.328C173.16 35.032 174.264 35.832 174.968 36.728C175.704 37.592 176.104 38.44 176.168 39.272C176.232 40.104 176.056 40.808 175.64 41.384C175.256 41.992 174.696 42.36 173.96 42.488C173.224 42.648 172.408 42.456 171.512 41.912C171.16 40.856 170.632 39.8 169.928 38.744C169.256 37.688 168.504 36.68 167.672 35.72C166.872 34.728 166.088 33.848 165.32 33.08L165.704 32.792ZM165.8 19.64C165.768 19.928 165.624 20.184 165.368 20.408C165.144 20.6 164.76 20.744 164.216 20.84V43.736C164.216 43.896 163.992 44.088 163.544 44.312C163.096 44.568 162.536 44.792 161.864 44.984C161.224 45.176 160.568 45.272 159.896 45.272H158.888V18.968L165.8 19.64ZM171.992 26.024C171.992 26.024 172.264 26.232 172.808 26.648C173.352 27.064 174.008 27.576 174.776 28.184C175.544 28.76 176.216 29.336 176.792 29.912C176.696 30.424 176.28 30.68 175.544 30.68H146.504L146.12 29.288H169.304L171.992 26.024ZM182.504 2.456C182.504 2.456 182.68 2.6 183.032 2.888C183.416 3.144 183.896 3.512 184.472 3.992C185.08 4.44 185.704 4.92 186.344 5.432C187.016 5.912 187.624 6.408 188.168 6.92C188.04 7.432 187.592 7.688 186.824 7.688H154.568L155.288 6.296H179.432L182.504 2.456ZM179.336 7.88C179.336 7.88 179.512 8.024 179.864 8.312C180.248 8.568 180.712 8.92 181.256 9.368C181.832 9.784 182.408 10.232 182.984 10.712C183.592 11.192 184.168 11.656 184.712 12.104C184.584 12.616 184.136 12.872 183.368 12.872H156.584L156.2 11.48H176.408L179.336 7.88ZM162.776 3.368C162.648 3.624 162.424 3.832 162.104 3.992C161.784 4.152 161.336 4.2 160.76 4.136C158.776 7.752 156.44 10.776 153.752 13.208C151.064 15.608 148.168 17.544 145.064 19.016L144.584 18.584C145.96 17.176 147.304 15.512 148.616 13.592C149.96 11.672 151.192 9.56 152.312 7.256C153.464 4.952 154.424 2.568 155.192 0.103997L162.776 3.368ZM178.664 16.808V18.152H150.296L149.864 16.808H178.664ZM175.352 16.808L178.184 13.64L183.704 18.008C183.384 18.36 182.744 18.616 181.784 18.776C181.72 20.472 181.736 22.28 181.832 24.2C181.928 26.088 182.12 27.928 182.408 29.72C182.728 31.512 183.16 33.112 183.704 34.52C184.28 35.896 185 36.904 185.864 37.544C186.12 37.704 186.312 37.768 186.44 37.736C186.568 37.672 186.696 37.512 186.824 37.256C187.144 36.616 187.432 35.912 187.688 35.144C187.944 34.344 188.184 33.544 188.408 32.744L188.888 32.792L188.504 39.512C189.144 40.6 189.512 41.544 189.608 42.344C189.736 43.144 189.592 43.784 189.176 44.264C188.6 44.872 187.928 45.192 187.16 45.224C186.424 45.256 185.672 45.08 184.904 44.696C184.136 44.344 183.432 43.912 182.792 43.4C181.352 42.248 180.168 40.744 179.24 38.888C178.344 37 177.656 34.872 177.176 32.504C176.696 30.136 176.36 27.608 176.168 24.92C176.008 22.232 175.912 19.528 175.88 16.808H175.352ZM204.728 14.024H212.936V15.416H205.16L204.728 14.024ZM211.352 14.024H210.824L213.512 11.24L218.312 15.32C218.056 15.704 217.464 15.944 216.536 16.04C216.024 18.888 215.256 21.752 214.232 24.632C213.208 27.48 211.784 30.184 209.96 32.744C208.136 35.272 205.8 37.496 202.952 39.416L202.472 38.888C204.36 36.776 205.912 34.344 207.128 31.592C208.344 28.808 209.288 25.912 209.96 22.904C210.632 19.864 211.096 16.904 211.352 14.024ZM223.112 9.272C223.656 12.952 224.424 16.168 225.416 18.92C226.408 21.672 227.592 24.04 228.968 26.024C230.344 27.976 231.832 29.64 233.432 31.016C235.032 32.392 236.696 33.56 238.424 34.52L238.184 35.048C237 35.272 235.96 35.896 235.064 36.92C234.2 37.944 233.56 39.144 233.144 40.52C231.576 38.888 230.216 37.128 229.064 35.24C227.912 33.32 226.92 31.16 226.088 28.76C225.256 26.36 224.568 23.576 224.024 20.408C223.48 17.24 223.048 13.576 222.728 9.416L223.112 9.272ZM223.16 2.888V38.552C223.16 39.832 223 40.92 222.68 41.816C222.36 42.744 221.672 43.48 220.616 44.024C219.592 44.568 217.992 44.936 215.816 45.128C215.72 44.264 215.576 43.512 215.384 42.872C215.192 42.264 214.888 41.752 214.472 41.336C214.056 40.888 213.496 40.52 212.792 40.232C212.12 39.912 211.112 39.656 209.768 39.464V38.744C209.768 38.744 210.056 38.776 210.632 38.84C211.24 38.872 211.944 38.92 212.744 38.984C213.576 39.016 214.36 39.048 215.096 39.08C215.864 39.112 216.392 39.128 216.68 39.128C217.128 39.128 217.416 39.048 217.544 38.888C217.704 38.728 217.784 38.488 217.784 38.168V0.871999L224.84 1.592C224.808 1.912 224.68 2.184 224.456 2.408C224.232 2.632 223.8 2.792 223.16 2.888ZM231.272 8.6L237.656 12.728C237.496 12.952 237.288 13.128 237.032 13.256C236.776 13.352 236.36 13.352 235.784 13.256C234.888 13.928 233.848 14.68 232.664 15.512C231.48 16.344 230.232 17.16 228.92 17.96C227.608 18.76 226.28 19.496 224.936 20.168L224.504 19.688C225.336 18.632 226.184 17.432 227.048 16.088C227.944 14.712 228.76 13.368 229.496 12.056C230.232 10.712 230.824 9.56 231.272 8.6ZM194.072 3.224C196.376 3.672 198.2 4.296 199.544 5.096C200.92 5.896 201.896 6.76 202.472 7.688C203.048 8.584 203.304 9.448 203.24 10.28C203.208 11.112 202.952 11.8 202.472 12.344C201.992 12.888 201.368 13.192 200.6 13.256C199.832 13.288 199.016 12.984 198.152 12.344C197.992 11.32 197.672 10.28 197.192 9.224C196.744 8.136 196.2 7.112 195.56 6.152C194.952 5.16 194.312 4.28 193.64 3.512L194.072 3.224ZM194.696 29.288C195.08 29.288 195.352 29.256 195.512 29.192C195.672 29.096 195.896 28.808 196.184 28.328C196.408 27.976 196.616 27.64 196.808 27.32C197 26.968 197.272 26.456 197.624 25.784C197.976 25.112 198.472 24.12 199.112 22.808C199.784 21.496 200.696 19.704 201.848 17.432C203 15.128 204.488 12.168 206.312 8.552L207.08 8.792C206.696 9.88 206.248 11.128 205.736 12.536C205.224 13.912 204.712 15.336 204.2 16.808C203.688 18.248 203.192 19.656 202.712 21.032C202.264 22.376 201.864 23.56 201.512 24.584C201.192 25.576 200.952 26.312 200.792 26.792C200.6 27.528 200.424 28.28 200.264 29.048C200.104 29.816 200.04 30.504 200.072 31.112C200.104 31.912 200.28 32.68 200.6 33.416C200.92 34.152 201.224 34.968 201.512 35.864C201.8 36.76 201.912 37.864 201.848 39.176C201.816 40.36 201.448 41.288 200.744 41.96C200.04 42.664 199.112 43.016 197.96 43.016C197.384 43.016 196.856 42.824 196.376 42.44C195.928 42.056 195.624 41.448 195.464 40.616C195.752 38.984 195.912 37.48 195.944 36.104C195.976 34.728 195.912 33.592 195.752 32.696C195.592 31.768 195.32 31.176 194.936 30.92C194.616 30.696 194.264 30.536 193.88 30.44C193.496 30.312 193.032 30.232 192.488 30.2V29.288C192.488 29.288 192.632 29.288 192.92 29.288C193.208 29.288 193.528 29.288 193.88 29.288C194.264 29.288 194.536 29.288 194.696 29.288ZM250.424 3.704V1.352L256.328 3.704H272.744V5.048H256.088V19.88C256.088 20.04 255.848 20.264 255.368 20.552C254.888 20.84 254.28 21.096 253.544 21.32C252.808 21.544 252.04 21.656 251.24 21.656H250.424V3.704ZM269.912 3.704H269.432L272.072 0.823999L277.544 4.952C277.416 5.144 277.176 5.352 276.824 5.576C276.472 5.768 276.056 5.912 275.576 6.008V19.688C275.576 19.816 275.304 20.008 274.76 20.264C274.248 20.52 273.624 20.744 272.888 20.936C272.184 21.128 271.512 21.224 270.872 21.224H269.912V3.704ZM253.4 15.992H272.888V17.384H253.4V15.992ZM242.936 24.632V22.376L248.552 24.632H258.296V25.976H248.312V43.112C248.312 43.24 248.088 43.448 247.64 43.736C247.224 44.024 246.664 44.28 245.96 44.504C245.256 44.728 244.52 44.84 243.752 44.84H242.936V24.632ZM255.272 24.632H254.792L257.384 21.848L262.664 25.88C262.536 26.072 262.296 26.264 261.944 26.456C261.624 26.648 261.224 26.792 260.744 26.888V42.392C260.744 42.52 260.488 42.712 259.976 42.968C259.464 43.224 258.856 43.448 258.152 43.64C257.48 43.864 256.824 43.976 256.184 43.976H255.272V24.632ZM244.904 38.648H257.768V39.992H244.904V38.648ZM265.016 24.632V22.376L270.68 24.632H281.048V25.976H270.44V43.16C270.44 43.32 270.216 43.528 269.768 43.784C269.32 44.072 268.744 44.328 268.04 44.552C267.336 44.776 266.6 44.888 265.832 44.888H265.016V24.632ZM277.736 24.632H277.256L279.848 21.8L285.272 25.88C285.144 26.072 284.904 26.264 284.552 26.456C284.2 26.648 283.784 26.808 283.304 26.936V42.872C283.304 42.968 283.032 43.128 282.488 43.352C281.976 43.576 281.368 43.768 280.664 43.928C279.96 44.12 279.288 44.216 278.648 44.216H277.736V24.632ZM266.744 38.648H280.232V39.992H266.744V38.648Z" fill="#3F88B4"/>
</svg>
