<?xml version="1.0" encoding="UTF-8"?>
<svg xmlns="http://www.w3.org/2000/svg" version="1.1" viewBox="0 0 512 512">
  <defs>
    <style>
      .cls-1 {
        fill: #70a9ca;
      }
    </style>
  </defs>
  <!-- Generator: Adobe Illustrator 28.7.8, SVG Export Plug-In . SVG Version: 1.2.0 Build 200)  -->
  <g>
    <g id="_圖層_1" data-name="圖層_1">
      <g id="Capa_1">
        <path class="cls-1" d="M0,255.7c-.2,54.7,44,99.2,98.7,99.4,25.2,0,49.5-9.4,67.9-26.6l147.6,66.6c-1,5.5-1.6,11.1-1.7,16.7-.2,55.1,44.3,99.9,99.4,100.1s99.9-44.3,100.1-99.4-44.3-99.9-99.4-100.1c-32.9-.1-63.8,16-82.4,43.1l-138.7-62.6c9.9-23.8,9.9-50.5.1-74.3l138.5-62.9c31.2,45.1,93,56.4,138.1,25.2s56.4-93,25.2-138.1c-31.2-45.1-93-56.4-138.1-25.2-26.9,18.6-42.9,49.2-42.8,81.8,0,5.6.7,11.2,1.7,16.7l-147.2,66.9c-39.9-37.5-102.6-35.5-140,4.4C9.5,206,0,230.4,0,255.7Z"/>
      </g>
    </g>
  </g>
</svg>