<?xml version="1.0" encoding="UTF-8"?>
<svg xmlns="http://www.w3.org/2000/svg" version="1.1" viewBox="0 0 509.5 496.8">
  <defs>
    <style>
      .cls-1 {
        fill: #bfd6e4;
      }
    </style>
  </defs>
  <!-- Generator: Adobe Illustrator 28.7.8, SVG Export Plug-In . SVG Version: 1.2.0 Build 200)  -->
  <g>
    <g id="_圖層_1" data-name="圖層_1">
      <g id="Layer_1">
        <path class="cls-1" d="M260.3,366.1l-48.8-48.8v-59.1c6.9-2.4,13.3-6.1,18.9-10.7l50.6,30.7,16.4,67,41.4-10.2-13.5-54.9,54.9-13.5-10.2-41.4-67,16.4-50.3-30.5c1.8-8.6,1.8-17.5,0-26.1l50.3-30.6,67,16.4,10.2-41.4-54.9-13.5,13.5-54.9-41.4-10.2-16.4,67-50.6,30.7c-5.6-4.6-12-8.2-18.9-10.7v-59.2l48.8-48.8L230.2,0l-40,40L150.2,0l-30.2,30.2,48.8,48.8v59.1c-6.9,2.4-13.3,6.1-18.9,10.7l-50.6-30.6-16.4-67-41.4,10.2,13.5,54.9L.1,129.8l10.2,41.4,66.9-16.4,50.3,30.5c-1.8,8.6-1.8,17.5,0,26.1l-50.3,30.5-67-16.4L0,266.9l54.9,13.5-13.5,54.9,41.4,10.2,16.4-67,50.6-30.7c5.6,4.6,12,8.2,18.9,10.7v59.1l-48.8,48.8,30.2,30.2,40.1-39.9,40,40,30.2-30.2v-.4ZM190.2,176.8c11.8,0,21.3,9.6,21.3,21.3s-9.6,21.3-21.3,21.3-21.3-9.6-21.3-21.3,9.6-21.3,21.3-21.3ZM403.5,496.8v-48.5l-42.1,24.1-21.3-37,41.9-23.9-41.7-23.9,21.3-37,42,24.1v-48.5h42.7v48.5l42.1-24.1,21.1,36.9-41.7,23.9,41.7,24-21.2,37-42.1-24.1v48.5h-42.7Z"/>
      </g>
    </g>
  </g>
</svg>