<?xml version="1.0" encoding="UTF-8"?>
<svg xmlns="http://www.w3.org/2000/svg" version="1.1" viewBox="0 0 24 24">
  <defs>
    <style>
      .cls-1 {
        fill: #70a9ca;
      }
    </style>
  </defs>
  <!-- Generator: Adobe Illustrator 28.7.8, SVG Export Plug-In . SVG Version: 1.2.0 Build 200)  -->
  <g>
    <g id="_圖層_1" data-name="圖層_1">
      <g id="Layer_1">
        <path class="cls-1" d="M19.1,11.6c0-.4-.2-.7-.5-.9-.9-.4-1.8-.8-2.8-1.2-1.7-.7-2.9-1.9-3.6-3.6-.4-1-.8-2-1.2-2.9-.2-.3-.5-.6-.9-.6s-.7.2-.9.6c-.4.9-.8,1.8-1.2,2.8-.6,1.7-1.9,3-3.6,3.6-1,.4-2,.8-2.8,1.2-.3.2-.5.5-.5.9s.2.7.5.9c.9.4,1.8.8,2.8,1.2,1.7.7,2.9,1.9,3.6,3.6.4,1.1.8,2,1.2,2.9.2.3.5.6.9.6s.7-.2.9-.6c.4-.9.8-1.8,1.2-2.9.6-1.7,1.9-3,3.6-3.6,1-.4,2-.8,2.8-1.2.3-.2.5-.5.5-.9h0ZM15.1,11.8c-2.2.9-3.9,2.6-4.8,4.8,0,.2-.2.4-.2.6,0-.2-.2-.4-.2-.6-.8-2.3-2.5-4-4.8-4.8-.2,0-.4-.2-.7-.3.2,0,.4-.2.7-.3,2.2-.9,3.9-2.6,4.8-4.8,0-.2.2-.4.2-.6,0,.2.2.4.2.6.8,2.3,2.5,4,4.8,4.8.2,0,.4.2.7.3-.2,0-.4.2-.7.3Z"/>
        <path class="cls-1" d="M17.1,6.5c.3,0,.5.2.8.3.2,0,.4.2.4.4,0,.3.2.5.3.8.2.3.5.6.9.6h0c.4,0,.7-.2.9-.6.1-.3.2-.5.3-.8,0-.2.2-.4.4-.4.3,0,.5-.2.8-.3.3-.2.5-.5.5-.9s-.2-.7-.5-.9c-.3,0-.5-.2-.8-.3-.2,0-.4-.2-.4-.4,0-.3-.2-.5-.3-.8-.2-.3-.5-.6-.9-.6h0c-.4,0-.7.2-.9.6-.1.3-.2.5-.3.8,0,.2-.2.4-.4.4-.3,0-.5.2-.8.3-.3.2-.5.5-.5.9s.2.7.5.9h0Z"/>
        <path class="cls-1" d="M22.5,17.2c-.3-.2-.6-.3-.9-.4s-.6-.4-.7-.7c-.1-.3-.2-.6-.4-1-.2-.3-.5-.6-.9-.6h0c-.4,0-.7.2-.9.6-.2.3-.3.6-.4.9s-.4.6-.7.7c-.3.1-.6.3-.9.4-.3.2-.5.5-.5.9s.2.7.5.9c.3.2.6.3.9.4s.6.4.7.7c.1.3.2.6.4,1,.2.3.5.6.9.6h0c.4,0,.7-.2.9-.6.2-.3.3-.6.4-.9s.4-.6.7-.7c.3-.1.6-.3.9-.4.3-.2.5-.5.5-.9s-.2-.7-.5-.9h0Z"/>
      </g>
    </g>
  </g>
</svg>