<?xml version="1.0" encoding="UTF-8"?>
<svg xmlns="http://www.w3.org/2000/svg" version="1.1" viewBox="0 0 512 512">
  <defs>
    <style>
      .cls-1 {
        fill: #70a9ca;
      }
    </style>
  </defs>
  <!-- Generator: Adobe Illustrator 28.7.8, SVG Export Plug-In . SVG Version: 1.2.0 Build 200)  -->
  <g>
    <g id="_圖層_1" data-name="圖層_1">
      <g id="Layer_1">
        <path class="cls-1" d="M405.3,362.7c-22.5,0-44.5-5.9-64-17.2-19.5,11.3-41.5,17.2-64,17.2h-42.7c-22.5,0-44.6-6.1-64-17.5-19.4,11.4-41.5,17.4-64,17.5h-21.3c-22.5,0-44.6-6-64-17.3v102.7c0,35.3,28.7,64,64,64h341.3c35.3,0,64-28.7,64-64v-102.7c-19.4,11.3-41.5,17.3-64,17.3h-21.3Z"/>
        <path class="cls-1" d="M362.7,0v128h-42.7V0h-128v128h-42.7V0H46.9L.5,208.7l-.5,26c0,47.1,38.2,85.3,85.3,85.3h21.3c24.6,0,48-10.8,64-29.5,16,18.6,39.4,29.4,64,29.5h42.7c24.5,0,47.8-10.5,64-28.9,16.2,18.4,39.5,29,64,28.9h21.3c47.1,0,85.3-38.2,85.3-85.3v-21.3L465.1,0h-102.4Z"/>
      </g>
    </g>
  </g>
</svg>